<svg width="1712" height="372" viewBox="0 0 1712 372" fill="none" xmlns="http://www.w3.org/2000/svg">
<path d="M470.378 93.1784C464.308 92.9584 458.048 94.8484 452.148 93.9784C437.718 91.8384 432.028 93.7484 425.888 106.888C420.358 118.728 416.138 131.168 411.018 143.208C397.838 174.238 380.788 203.758 374.208 237.368C373.138 242.808 371.648 248.628 363.438 249.968C358.488 235.968 353.878 222.108 348.688 208.458C335.698 174.248 322.648 140.058 309.108 106.058C307.138 101.108 302.338 97.2584 298.818 92.8584H231.438C232.258 98.7784 231.968 102.908 233.418 106.318C267.968 187.738 302.708 269.078 336.908 349.248H393.198C429.178 263.828 469.298 181.748 505.078 95.6184C491.158 94.6084 480.778 93.5684 470.368 93.1984L470.378 93.1784Z" fill="white"/>
<path d="M824.218 268.358C802.198 206.018 780.778 145.388 759.278 84.5283C734.088 85.6583 714.388 96.8083 691.238 104.798C694.088 113.808 696.158 120.878 698.568 127.838C707.888 154.818 717.408 181.718 726.668 208.718C740.948 250.368 754.978 292.098 769.418 333.688C771.028 338.318 774.638 342.258 776.928 345.908C792.828 345.928 888.808 313.818 919.758 298.298C916.078 280.378 909.818 263.048 901.428 246.158C874.928 251.978 851.208 263.968 824.218 268.358Z" fill="white"/>
<path d="M1646.49 104.618C1643.46 110.138 1640.21 114.078 1639.01 118.568C1632.96 141.168 1627.54 163.928 1621.66 186.578C1620.32 191.758 1618.04 196.688 1616 202.248C1584.66 197.508 1556.26 189.758 1527.97 180.408C1528.3 175.428 1528.05 171.958 1528.83 168.728C1534.58 144.878 1540.45 121.068 1546.47 97.2884C1548.11 90.8184 1548.9 84.8284 1543.45 80.8584C1523.05 76.3284 1503.6 72.0084 1482.67 67.3584C1479.76 72.9984 1477.24 76.2884 1476.3 79.9684C1471.54 98.7784 1467.28 117.708 1462.67 136.548C1450.6 185.898 1438.4 235.218 1426.33 284.568C1423.67 295.428 1416.47 305.628 1421.88 319.318C1442.25 325.758 1463.55 332.458 1486.66 332.198C1495.99 299.188 1503.02 267.618 1513.58 236.028C1545.1 240.088 1573.66 248.968 1604.02 257.058C1603.13 263.228 1602.96 268.268 1601.63 272.998C1594.87 297.168 1587.68 321.228 1581 345.418C1580 349.018 1580.86 353.128 1580.86 358.728C1603.32 363.148 1624.5 369.158 1648.39 371.198C1669.43 288.508 1690.08 207.388 1711.11 124.728C1690.93 114.078 1668.18 113.688 1646.5 104.618H1646.49Z" fill="white"/>
<path d="M1366.48 104.599C1382.71 110.269 1396.74 117.889 1408.66 129.969C1411.57 132.919 1415.38 134.999 1421.55 139.519C1425.73 113.559 1436.26 92.4086 1437.11 69.1686C1414.48 49.4486 1388.18 41.5286 1360.78 37.6186C1337.62 34.3186 1314.95 39.5186 1293.15 47.5186C1277.5 53.2586 1262.18 60.1486 1250.5 72.4086C1215.59 109.059 1200.09 151.839 1210.89 202.309C1212.67 210.649 1214.62 219.239 1218.32 226.829C1240.49 272.269 1278.04 298.269 1327.09 307.329C1343.5 310.359 1361.56 313.509 1377.16 300.919C1380.39 279.889 1390.41 260.289 1391.83 238.469C1388.34 237.869 1386.61 237.099 1385.08 237.399C1381.73 238.059 1378.4 239.029 1375.22 240.269C1337.22 255.059 1289.95 230.489 1280.02 190.929C1276.93 178.619 1279.1 166.639 1281.64 154.789C1290.46 113.759 1337.42 94.4386 1366.48 104.599Z" fill="white"/>
<path d="M1140.17 35.9784C1110.49 9.95841 1075.75 -0.50159 1037.17 0.0184096C1028.17 0.13841 1018.99 2.96841 1010.31 5.79841C994.009 11.1084 976.379 14.7484 962.159 23.6184C912.529 54.5984 886.469 98.3684 892.329 158.798C896.759 204.508 922.319 236.118 959.039 259.118C979.849 272.158 1004.22 279.088 1030.94 277.338C1053.94 278.578 1076.13 272.128 1098.15 262.748C1149.66 240.808 1184.17 190.168 1183.49 134.498C1183.01 95.5784 1170.27 62.3584 1140.18 35.9784H1140.17ZM1083.32 198.308C1063.12 209.308 1042.99 218.318 1020.34 211.498C1001.42 205.798 984.109 196.958 973.249 179.038C951.929 143.858 962.969 100.838 995.379 78.5984C1026.16 57.4884 1063.07 58.2784 1091.14 86.6284C1117.05 112.788 1125.35 156.498 1083.33 198.308H1083.32Z" fill="white"/>
<path d="M208.518 194.978C199.418 170.878 190.808 146.588 181.398 122.608C178.168 114.358 176.558 104.718 169.328 100.668H98.0783C81.9083 140.958 66.2283 180.268 50.3583 219.498C35.5583 256.108 20.6383 292.678 5.58829 329.198C2.09829 337.658 -2.37171 345.778 1.48829 356.258H64.0883C76.4983 343.138 74.3483 321.198 89.2083 310.318C103.358 310.748 116.498 311.248 129.648 311.528C141.768 311.788 153.888 311.958 166.008 311.868C173.308 311.808 179.758 313.168 182.968 317.798C188.418 331.848 193.108 343.958 197.838 356.188C222.018 357.558 244.688 356.888 269.258 355.948C262.598 338.058 256.928 322.588 251.098 307.178C236.938 269.768 222.628 232.408 208.508 194.988L208.518 194.978ZM111.258 261.308C106.538 250.148 109.848 242.258 113.838 235.748C122.868 221.028 121.918 201.788 136.608 186.028C144.188 210.718 150.938 232.708 158.278 256.578C143.568 266.568 127.158 259.408 111.258 261.298V261.308Z" fill="white"/>
<path d="M629.898 109.688C605.748 105.488 581.898 106.858 555.238 106.678C524.348 183.898 493.828 260.158 463.328 336.418C460.648 343.108 458.048 349.838 454.528 358.788H524.388C530.758 345.418 536.848 332.628 542.978 319.758H633.648C639.978 334.188 646.268 348.548 652.678 363.178C676.988 361.798 699.698 366.598 722.508 360.108C691.238 275.558 660.718 193.028 629.898 109.688ZM563.518 266.958C570.638 241.818 579.408 219.798 588.148 197.758C590.048 198.228 591.938 198.698 593.838 199.168C599.778 220.368 605.708 241.578 612.148 264.558L563.518 266.948V266.958Z" fill="white"/>
</svg>
