<svg width="200" height="200" viewBox="0 0 200 200" fill="none" xmlns="http://www.w3.org/2000/svg">
<path d="M190.794 99.7367C190.794 149.849 150.098 190.473 99.8969 190.473C49.6959 190.473 9 149.849 9 99.7367C9 49.6242 49.6959 9 99.8969 9C150.098 9 190.794 49.6242 190.794 99.7367Z" fill="#141618"/>
<path d="M190.794 99.7367C190.794 149.849 150.098 190.473 99.8969 190.473C49.6959 190.473 9 149.849 9 99.7367C9 49.6242 49.6959 9 99.8969 9C150.098 9 190.794 49.6242 190.794 99.7367Z" fill="#141618"/>
<path fill-rule="evenodd" clip-rule="evenodd" d="M190.327 108.987C190.399 108.281 190.462 107.573 190.518 106.863C190.701 104.511 190.794 102.135 190.794 99.7367C190.794 97.3384 190.701 94.9619 190.518 92.6105C190.462 91.9001 190.399 91.192 190.327 90.4863C190.255 89.7774 190.175 89.0708 190.087 88.3668C187.784 88.5986 186.077 90.6255 186.257 92.9409C186.432 95.1825 186.521 97.4488 186.521 99.7367C186.521 102.025 186.432 104.291 186.257 106.533C186.077 108.848 187.784 110.875 190.087 111.107C190.175 110.403 190.255 109.696 190.327 108.987ZM189.197 116.757C186.935 116.272 184.687 117.677 184.146 119.935C183.081 124.379 181.672 128.689 179.949 132.836C179.058 134.981 180.051 137.436 182.167 138.37C182.47 137.727 182.766 137.081 183.055 136.43C183.343 135.78 183.623 135.127 183.896 134.47C185.705 130.116 187.184 125.592 188.301 120.928C188.467 120.238 188.624 119.544 188.774 118.848C188.923 118.154 189.064 117.457 189.197 116.757ZM179.561 143.466C177.561 142.303 174.987 142.941 173.77 144.92C171.389 148.79 168.712 152.458 165.769 155.894C164.257 157.66 164.441 160.302 166.165 161.843C166.653 161.324 167.134 160.8 167.61 160.271C168.085 159.742 168.554 159.207 169.017 158.666C172.104 155.061 174.913 151.212 177.411 147.152C177.783 146.547 178.149 145.936 178.507 145.322C178.866 144.708 179.217 144.089 179.561 143.466ZM162.112 165.888C160.569 164.167 157.922 163.984 156.154 165.493C152.711 168.431 149.036 171.103 145.16 173.479C143.178 174.695 142.538 177.264 143.703 179.26C144.327 178.917 144.947 178.566 145.562 178.209C146.178 177.851 146.789 177.486 147.396 177.114C151.463 174.621 155.319 171.817 158.93 168.735C159.472 168.273 160.008 167.805 160.538 167.33C161.068 166.856 161.593 166.375 162.112 165.888ZM138.598 181.862C137.663 179.749 135.203 178.759 133.054 179.648C128.9 181.368 124.582 182.774 120.131 183.837C117.869 184.377 116.461 186.621 116.947 188.88C117.648 188.747 118.347 188.606 119.042 188.457C119.739 188.308 120.434 188.151 121.125 187.985C125.798 186.87 130.33 185.393 134.691 183.588C135.35 183.316 136.004 183.036 136.655 182.748C137.307 182.46 137.955 182.164 138.598 181.862ZM111.287 189.768C111.055 187.469 109.024 185.765 106.705 185.945C104.459 186.119 102.189 186.208 99.8969 186.208C97.6049 186.208 95.3346 186.119 93.0891 185.945C90.7696 185.765 88.739 187.469 88.5069 189.768C89.2122 189.856 89.9199 189.936 90.6301 190.008C91.3371 190.079 92.0464 190.142 92.7581 190.198C95.1136 190.38 97.4944 190.473 99.8969 190.473C102.299 190.473 104.68 190.38 107.036 190.198C107.747 190.142 108.457 190.079 109.164 190.008C109.874 189.936 110.582 189.856 111.287 189.768ZM82.8462 188.88C83.3323 186.621 81.9247 184.377 79.6625 183.837C75.2114 182.774 70.8939 181.368 66.7394 179.648C64.5907 178.759 62.1311 179.749 61.1954 181.862C61.8391 182.164 62.487 182.46 63.1389 182.748C63.7895 183.036 64.4441 183.316 65.1026 183.588C69.4636 185.393 73.9958 186.87 78.6682 187.985C79.3597 188.151 80.0543 188.308 80.7518 188.457C81.447 188.606 82.1452 188.747 82.8462 188.88ZM56.0906 179.26C57.2557 177.264 56.6162 174.695 54.6338 173.479C50.7575 171.103 47.0822 168.43 43.6399 165.493C41.8716 163.984 39.2251 164.167 37.6813 165.888C38.2004 166.375 38.7253 166.856 39.2558 167.33C39.7861 167.805 40.322 168.273 40.8634 168.735C44.4745 171.817 48.3303 174.621 52.3978 177.114C53.0044 177.486 53.6156 177.851 54.2314 178.209C54.8466 178.566 55.4664 178.917 56.0906 179.26ZM33.6284 161.843C35.3526 160.302 35.5363 157.66 34.0245 155.894C31.0818 152.458 28.4044 148.789 26.024 144.92C24.8067 142.941 22.2324 142.303 20.2331 143.466C20.5771 144.089 20.9282 144.708 21.2863 145.322C21.6448 145.936 22.0104 146.547 22.3828 147.152C24.8806 151.212 27.6896 155.061 30.7767 158.666C31.2395 159.207 31.7086 159.742 32.1838 160.271C32.6592 160.8 33.1408 161.324 33.6284 161.843ZM17.6269 138.37C19.7431 137.436 20.7353 134.981 19.8443 132.836C18.1215 128.689 16.7129 124.379 15.6479 119.935C15.1067 117.677 12.8588 116.272 10.5966 116.757C10.7296 117.457 10.8707 118.154 11.0198 118.848C11.1693 119.544 11.3269 120.238 11.4923 120.928C12.6102 125.592 14.0889 130.116 15.8973 134.47C16.1704 135.127 16.451 135.78 16.739 136.43C17.0275 137.081 17.3236 137.727 17.6269 138.37ZM9.70672 111.107C12.0094 110.875 13.7165 108.848 13.5363 106.532C13.3618 104.291 13.2729 102.025 13.2729 99.7367C13.2729 97.4488 13.3618 95.1825 13.5363 92.9409C13.7165 90.6255 12.0094 88.5985 9.70672 88.3668C9.61856 89.0708 9.53847 89.7774 9.46656 90.4863C9.39497 91.192 9.33149 91.9001 9.2762 92.6105C9.09321 94.9619 9 97.3384 9 99.7367C9 102.135 9.09321 104.511 9.2762 106.863C9.33149 107.573 9.39497 108.281 9.46656 108.987C9.53847 109.696 9.61855 110.403 9.70672 111.107ZM10.5966 82.7161C12.8588 83.2013 15.1067 81.7962 15.6479 79.538C16.7129 75.0947 18.1215 70.7849 19.8443 66.6377C20.7353 64.4928 19.7432 62.0374 17.6269 61.1034C17.3236 61.746 17.0276 62.3928 16.739 63.0435C16.451 63.693 16.1704 64.3464 15.8973 65.0038C14.0889 69.357 12.6102 73.8813 11.4923 78.5455C11.3269 79.2357 11.1693 79.9291 11.0198 80.6253C10.8707 81.3194 10.7296 82.0163 10.5966 82.7161ZM20.2331 56.0076C22.2324 57.1707 24.8067 56.5323 26.024 54.5534C28.4045 50.6839 31.0818 47.0151 34.0245 43.5789C35.5363 41.8136 35.3526 39.1718 33.6284 37.6307C33.1408 38.149 32.6592 38.6729 32.1838 39.2025C31.7086 39.7318 31.2395 40.2668 30.7767 40.8073C27.6896 44.4119 24.8807 48.261 22.3828 52.3213C22.0104 52.9268 21.6448 53.537 21.2863 54.1517C20.9282 54.7658 20.5771 55.3845 20.2331 56.0076ZM37.6813 33.585C39.2251 35.3061 41.8716 35.4895 43.64 33.9804C47.0822 31.0429 50.7575 28.3703 54.6338 25.994C56.6162 24.7788 57.2557 22.2091 56.0906 20.2133C55.4664 20.5567 54.8466 20.9072 54.2314 21.2647C53.6156 21.6225 53.0044 21.9874 52.3978 22.3592C48.3303 24.8527 44.4745 27.6567 40.8634 30.7383C40.322 31.2003 39.7861 31.6686 39.2558 32.143C38.7253 32.6175 38.2004 33.0982 37.6813 33.585ZM61.1954 17.6117C62.1311 19.7242 64.5907 20.7147 66.7394 19.8252C70.8939 18.1054 75.2114 16.6993 79.6625 15.6362C81.9247 15.0959 83.3323 12.852 82.8463 10.5938C82.1452 10.7266 81.447 10.8674 80.7518 11.0162C80.0543 11.1655 79.3597 11.3228 78.6682 11.4879C73.9958 12.6038 69.4636 14.0799 65.1026 15.8851C64.4441 16.1577 63.7895 16.4378 63.139 16.7253C62.487 17.0134 61.8392 17.3089 61.1954 17.6117ZM88.5069 9.70547C88.7391 12.0041 90.7696 13.7082 93.0891 13.5283C95.3346 13.3542 97.6049 13.2654 99.8969 13.2654C102.189 13.2654 104.459 13.3542 106.705 13.5283C109.024 13.7082 111.055 12.0041 111.287 9.70548C110.582 9.61747 109.874 9.53752 109.164 9.46574C108.457 9.39428 107.747 9.33091 107.036 9.27572C104.68 9.09304 102.299 9 99.8969 9C97.4944 9 95.1137 9.09304 92.7581 9.27572C92.0465 9.33091 91.3371 9.39428 90.6301 9.46573C89.92 9.53752 89.2122 9.61746 88.5069 9.70547ZM116.947 10.5938C116.461 12.852 117.869 15.0959 120.131 15.6362C124.582 16.6993 128.9 18.1054 133.054 19.8252C135.203 20.7147 137.663 19.7242 138.598 17.6117C137.955 17.3089 137.307 17.0134 136.655 16.7253C136.004 16.4378 135.35 16.1577 134.691 15.8852C130.33 14.0799 125.798 12.6038 121.126 11.4879C120.434 11.3228 119.739 11.1655 119.042 11.0162C118.347 10.8674 117.649 10.7266 116.947 10.5938ZM143.703 20.2133C142.538 22.2091 143.178 24.7788 145.16 25.994C149.036 28.3703 152.711 31.0429 156.154 33.9804C157.922 35.4895 160.569 35.3062 162.112 33.585C161.593 33.0983 161.068 32.6176 160.538 32.143C160.008 31.6686 159.472 31.2003 158.93 30.7383C155.319 27.6567 151.463 24.8527 147.396 22.3593C146.789 21.9875 146.178 21.6226 145.562 21.2647C144.947 20.9072 144.327 20.5567 143.703 20.2133ZM166.165 37.6308C164.441 39.1718 164.257 41.8137 165.769 43.5789C168.712 47.0151 171.389 50.6839 173.77 54.5534C174.987 56.5323 177.561 57.1707 179.561 56.0076C179.217 55.3845 178.866 54.7658 178.507 54.1517C178.149 53.537 177.783 52.9268 177.411 52.3214C174.913 48.261 172.104 44.412 169.017 40.8073C168.554 40.2668 168.085 39.7318 167.61 39.2025C167.134 38.6729 166.653 38.149 166.165 37.6308ZM189.197 82.7161C189.064 82.0163 188.923 81.3194 188.774 80.6254C188.624 79.9291 188.467 79.2357 188.301 78.5455C187.184 73.8813 185.705 69.3571 183.896 65.0038C183.623 64.3464 183.343 63.693 183.055 63.0436C182.766 62.3928 182.47 61.7461 182.167 61.1034C180.051 62.0374 179.058 64.4928 179.949 66.6377C181.672 70.7849 183.081 75.0947 184.146 79.538C184.687 81.7962 186.935 83.2013 189.197 82.7161Z" fill="white"/>
<path fill-rule="evenodd" clip-rule="evenodd" d="M99.8968 65.6313L65.7295 99.7383L99.8968 133.845L134.064 99.7383L99.8968 65.6313ZM56.3906 99.7383L99.8968 143.168L143.403 99.7383L99.8968 56.3088L56.3906 99.7383Z" fill="white"/>
<path fill-rule="evenodd" clip-rule="evenodd" d="M99.8965 54.3689C102.256 54.3689 104.169 52.4592 104.169 50.1035C104.169 47.7478 102.256 45.8381 99.8965 45.8381C97.5366 45.8381 95.6236 47.7478 95.6236 50.1035C95.6236 52.4592 97.5366 54.3689 99.8965 54.3689ZM99.8965 60.9609C105.903 60.9609 110.773 56.0999 110.773 50.1035C110.773 44.1071 105.903 39.2461 99.8965 39.2461C93.8895 39.2461 89.02 44.1071 89.02 50.1035C89.02 56.0999 93.8895 60.9609 99.8965 60.9609Z" fill="white"/>
<path fill-rule="evenodd" clip-rule="evenodd" d="M99.8957 62.9011C106.975 62.9011 112.714 57.172 112.714 50.1049C112.714 46.9566 110.798 42.5893 107.103 37.6991C104.889 34.7691 102.322 32.0269 99.8957 29.7422C97.4693 32.0269 94.9028 34.7691 92.6888 37.6991C88.9937 42.5893 87.0769 46.9566 87.0769 50.1049C87.0769 57.172 92.8161 62.9011 99.8957 62.9011ZM99.8957 21.0226C92.5152 26.839 80.4733 39.3971 80.4733 50.1049C80.4733 60.8127 89.169 69.493 99.8957 69.493C110.622 69.493 119.318 60.8127 119.318 50.1049C119.318 39.3971 107.276 26.839 99.8957 21.0226Z" fill="white"/>
<path fill-rule="evenodd" clip-rule="evenodd" d="M99.8957 136.575C106.975 136.575 112.714 142.304 112.714 149.371C112.714 152.519 110.798 156.886 107.103 161.776C104.889 164.707 102.322 167.449 99.8957 169.733C97.4693 167.449 94.9028 164.707 92.6888 161.776C88.9937 156.886 87.0769 152.519 87.0769 149.371C87.0769 142.304 92.8161 136.575 99.8957 136.575ZM99.8957 178.453C92.5152 172.637 80.4733 160.079 80.4733 149.371C80.4733 138.663 89.169 129.983 99.8957 129.983C110.622 129.983 119.318 138.663 119.318 149.371C119.318 160.079 107.276 172.637 99.8957 178.453Z" fill="white"/>
<path fill-rule="evenodd" clip-rule="evenodd" d="M63.1891 99.9316C63.1891 106.999 57.4499 112.728 50.3703 112.728C47.2165 112.728 42.8414 110.814 37.9427 107.126C35.0075 104.916 32.2604 102.354 29.9717 99.9316C32.2604 97.5094 35.0075 94.9475 37.9427 92.7374C42.8414 89.0488 47.2165 87.1354 50.3703 87.1354C57.4499 87.1354 63.1891 92.8644 63.1891 99.9316ZM21.2367 99.9316C27.0634 92.5641 39.6436 80.5434 50.3703 80.5434C61.097 80.5434 69.7927 89.2238 69.7927 99.9316C69.7927 110.639 61.097 119.32 50.3703 119.32C39.6436 119.32 27.0634 107.299 21.2367 99.9316Z" fill="white"/>
<path fill-rule="evenodd" clip-rule="evenodd" d="M136.799 99.9317C136.799 92.8646 142.538 87.1355 149.618 87.1355C152.772 87.1355 157.147 89.0489 162.046 92.7375C164.981 94.9476 167.728 97.5096 170.017 99.9317C167.728 102.354 164.981 104.916 162.046 107.126C157.147 110.814 152.772 112.728 149.618 112.728C142.538 112.728 136.799 106.999 136.799 99.9317ZM178.752 99.9317C172.925 107.299 160.345 119.32 149.618 119.32C138.891 119.32 130.196 110.639 130.196 99.9317C130.196 89.2239 138.891 80.5435 149.618 80.5435C160.345 80.5435 172.925 92.5642 178.752 99.9317Z" fill="white"/>
<path fill-rule="evenodd" clip-rule="evenodd" d="M99.8965 153.638C102.256 153.638 104.169 151.728 104.169 149.373C104.169 147.017 102.256 145.107 99.8965 145.107C97.5366 145.107 95.6236 147.017 95.6236 149.373C95.6236 151.728 97.5366 153.638 99.8965 153.638ZM99.8965 160.23C105.903 160.23 110.773 155.369 110.773 149.373C110.773 143.376 105.903 138.515 99.8965 138.515C93.8895 138.515 89.02 143.376 89.02 149.373C89.02 155.369 93.8895 160.23 99.8965 160.23Z" fill="white"/>
<path fill-rule="evenodd" clip-rule="evenodd" d="M50.1761 104.004C52.536 104.004 54.449 102.094 54.449 99.7382C54.449 97.3825 52.536 95.4728 50.1761 95.4728C47.8162 95.4728 45.9032 97.3825 45.9032 99.7382C45.9032 102.094 47.8162 104.004 50.1761 104.004ZM50.1761 110.596C56.1831 110.596 61.0526 105.735 61.0526 99.7382C61.0526 93.7419 56.1831 88.8809 50.1761 88.8809C44.1692 88.8809 39.2996 93.7419 39.2996 99.7382C39.2996 105.735 44.1692 110.596 50.1761 110.596Z" fill="white"/>
<path fill-rule="evenodd" clip-rule="evenodd" d="M149.619 104.004C151.979 104.004 153.892 102.094 153.892 99.7382C153.892 97.3825 151.979 95.4728 149.619 95.4728C147.259 95.4728 145.346 97.3825 145.346 99.7382C145.346 102.094 147.259 104.004 149.619 104.004ZM149.619 110.596C155.626 110.596 160.496 105.735 160.496 99.7382C160.496 93.7419 155.626 88.8809 149.619 88.8809C143.612 88.8809 138.743 93.7419 138.743 99.7382C138.743 105.735 143.612 110.596 149.619 110.596Z" fill="white"/>
<path fill-rule="evenodd" clip-rule="evenodd" d="M99.8961 80.767C101.72 80.767 103.198 82.2427 103.198 84.063L103.198 116.966C103.198 118.786 101.72 120.262 99.8961 120.262C98.0726 120.262 96.5943 118.786 96.5943 116.966L96.5943 84.063C96.5943 82.2427 98.0726 80.767 99.8961 80.767Z" fill="white"/>
<path fill-rule="evenodd" clip-rule="evenodd" d="M80.1166 99.4175C80.1166 97.5971 81.5949 96.1215 83.4184 96.1215H116.379C118.203 96.1215 119.681 97.5971 119.681 99.4175C119.681 101.238 118.203 102.713 116.379 102.713H83.4184C81.5949 102.713 80.1166 101.238 80.1166 99.4175Z" fill="white"/>
<path fill-rule="evenodd" clip-rule="evenodd" d="M85.9104 86.5499C87.1998 85.2627 89.2904 85.2627 90.5798 86.5499L113.886 109.815C115.176 111.103 115.176 113.19 113.886 114.477C112.597 115.764 110.506 115.764 109.217 114.477L85.9104 91.2111C84.6209 89.9239 84.6209 87.837 85.9104 86.5499Z" fill="white"/>
<path fill-rule="evenodd" clip-rule="evenodd" d="M85.131 113.701C83.8415 112.414 83.8415 110.327 85.131 109.04L108.438 85.7744C109.727 84.4872 111.818 84.4872 113.107 85.7744C114.397 87.0615 114.397 89.1484 113.107 90.4356L89.8004 113.701C88.511 114.988 86.4204 114.988 85.131 113.701Z" fill="white"/>
<path fill-rule="evenodd" clip-rule="evenodd" d="M147.678 54.3685H136.801V65.2259H147.678V54.3685ZM130.197 47.7765V71.8178H154.281V47.7765H130.197Z" fill="white"/>
<path fill-rule="evenodd" clip-rule="evenodd" d="M147.678 134.247H136.801V145.105H147.678V134.247ZM130.197 127.655V151.697H154.281V127.655H130.197Z" fill="white"/>
<path fill-rule="evenodd" clip-rule="evenodd" d="M62.9936 54.3685H52.117V65.2259H62.9936V54.3685ZM45.5134 47.7765V71.8178H69.5972V47.7765H45.5134Z" fill="white"/>
<path fill-rule="evenodd" clip-rule="evenodd" d="M62.9936 134.247H52.117V145.105H62.9936V134.247ZM45.5134 127.655V151.697H69.5972V127.655H45.5134Z" fill="white"/>
</svg>
