<svg width="183" height="182" viewBox="0 0 183 182" fill="none" xmlns="http://www.w3.org/2000/svg">
<path d="M182.657 90.7367C182.657 140.849 141.961 181.473 91.7601 181.473C41.5592 181.473 0.863281 140.849 0.863281 90.7367C0.863281 40.6242 41.5592 0 91.7601 0C141.961 0 182.657 40.6242 182.657 90.7367Z" fill="#141618"/>
<path d="M182.657 90.7367C182.657 140.849 141.961 181.473 91.7601 181.473C41.5592 181.473 0.863281 140.849 0.863281 90.7367C0.863281 40.6242 41.5592 0 91.7601 0C141.961 0 182.657 40.6242 182.657 90.7367Z" fill="#141618"/>
<path fill-rule="evenodd" clip-rule="evenodd" d="M182.19 99.9871C182.262 99.2814 182.326 98.5733 182.381 97.8629C182.564 95.5115 182.657 93.135 182.657 90.7367C182.657 88.3384 182.564 85.9619 182.381 83.6105C182.326 82.9001 182.262 82.192 182.19 81.4863C182.119 80.7774 182.038 80.0708 181.95 79.3668C179.648 79.5986 177.941 81.6255 178.121 83.9409C178.295 86.1825 178.384 88.4488 178.384 90.7367C178.384 93.0246 178.295 95.2909 178.121 97.5325C177.941 99.8479 179.648 101.875 181.95 102.107C182.038 101.403 182.119 100.696 182.19 99.9871ZM181.06 107.757C178.798 107.272 176.55 108.677 176.009 110.935C174.944 115.379 173.535 119.689 171.813 123.836C170.922 125.981 171.914 128.436 174.03 129.37C174.333 128.727 174.629 128.081 174.918 127.43C175.206 126.78 175.487 126.127 175.76 125.47C177.568 121.116 179.047 116.592 180.165 111.928C180.33 111.238 180.488 110.544 180.637 109.848C180.786 109.154 180.927 108.457 181.06 107.757ZM171.424 134.466C169.425 133.303 166.85 133.941 165.633 135.92C163.253 139.79 160.575 143.458 157.632 146.894C156.121 148.66 156.304 151.302 158.029 152.843C158.516 152.324 158.998 151.8 159.473 151.271C159.948 150.742 160.417 150.207 160.88 149.666C163.967 146.061 166.776 142.212 169.274 138.152C169.647 137.547 170.012 136.936 170.371 136.322C170.729 135.708 171.08 135.089 171.424 134.466ZM153.976 156.888C152.432 155.167 149.785 154.984 148.017 156.493C144.575 159.431 140.9 162.103 137.023 164.479C135.041 165.695 134.401 168.264 135.566 170.26C136.191 169.917 136.81 169.566 137.426 169.209C138.041 168.851 138.653 168.486 139.259 168.114C143.327 165.621 147.183 162.817 150.794 159.735C151.335 159.273 151.871 158.805 152.401 158.33C152.932 157.856 153.457 157.375 153.976 156.888ZM130.462 172.862C129.526 170.749 127.066 169.759 124.918 170.648C120.763 172.368 116.446 173.774 111.995 174.837C109.732 175.377 108.325 177.621 108.811 179.88C109.512 179.747 110.21 179.606 110.905 179.457C111.603 179.308 112.297 179.151 112.989 178.985C117.661 177.87 122.193 176.393 126.554 174.588C127.213 174.316 127.867 174.036 128.518 173.748C129.17 173.46 129.818 173.164 130.462 172.862ZM103.15 180.768C102.918 178.469 100.887 176.765 98.5679 176.945C96.3224 177.119 94.0521 177.208 91.7601 177.208C89.4682 177.208 87.1979 177.119 84.9523 176.945C82.6329 176.765 80.6023 178.469 80.3702 180.768C81.0754 180.856 81.7832 180.936 82.4934 181.008C83.2004 181.079 83.9097 181.142 84.6214 181.198C86.9769 181.38 89.3576 181.473 91.7601 181.473C94.1626 181.473 96.5434 181.38 98.8989 181.198C99.6105 181.142 100.32 181.079 101.027 181.008C101.737 180.936 102.445 180.856 103.15 180.768ZM74.7095 179.88C75.1956 177.621 73.788 175.377 71.5258 174.837C67.0747 173.774 62.7572 172.368 58.6027 170.648C56.454 169.759 53.9943 170.749 53.0587 172.862C53.7024 173.164 54.3503 173.46 55.0022 173.748C55.6528 174.036 56.3074 174.316 56.9659 174.588C61.3269 176.393 65.8591 177.87 70.5315 178.985C71.223 179.151 71.9175 179.308 72.6151 179.457C73.3103 179.606 74.0085 179.747 74.7095 179.88ZM47.9539 170.26C49.119 168.264 48.4794 165.695 46.4971 164.479C42.6207 162.103 38.9455 159.431 35.5032 156.493C33.7348 154.984 31.0884 155.167 29.5446 156.888C30.0637 157.375 30.5886 157.856 31.1191 158.33C31.6494 158.805 32.1853 159.273 32.7267 159.735C36.3377 162.817 40.1936 165.621 44.2611 168.114C44.8676 168.486 45.4789 168.851 46.0947 169.209C46.7099 169.566 47.3296 169.917 47.9539 170.26ZM25.4916 152.843C27.2159 151.302 27.3996 148.66 25.8878 146.894C22.9451 143.458 20.2677 139.789 17.8873 135.92C16.67 133.941 14.0957 133.303 12.0963 134.466C12.4403 135.089 12.7915 135.708 13.1496 136.322C13.5081 136.936 13.8736 137.547 14.2461 138.152C16.7439 142.212 19.5529 146.061 22.6399 149.666C23.1028 150.207 23.5719 150.742 24.0471 151.271C24.5225 151.8 25.0041 152.324 25.4916 152.843ZM9.49022 129.37C11.6064 128.436 12.5986 125.981 11.7076 123.836C9.98479 119.689 8.57616 115.379 7.51122 110.935C6.96997 108.677 4.72207 107.272 2.45988 107.757C2.59293 108.457 2.73402 109.154 2.88306 109.848C3.0326 110.544 3.19014 111.238 3.35558 111.928C4.47347 116.592 5.95217 121.116 7.76058 125.47C8.03366 126.127 8.31424 126.78 8.60224 127.43C8.89083 128.081 9.18686 128.727 9.49022 129.37ZM1.57 102.107C3.87264 101.875 5.57977 99.8479 5.39958 97.5325C5.22513 95.2909 5.13621 93.0246 5.13621 90.7367C5.13621 88.4488 5.22513 86.1825 5.39958 83.9409C5.57977 81.6255 3.87264 79.5985 1.57 79.3668C1.48184 80.0708 1.40175 80.7774 1.32984 81.4863C1.25826 82.192 1.19477 82.9001 1.13949 83.6105C0.956489 85.9619 0.863281 88.3384 0.863281 90.7367C0.863281 93.1349 0.956489 95.5115 1.13948 97.8629C1.19477 98.5733 1.25825 99.2814 1.32984 99.9871C1.40175 100.696 1.48183 101.403 1.57 102.107ZM2.45989 73.7161C4.72208 74.2013 6.96998 72.7962 7.51123 70.538C8.57617 66.0947 9.9848 61.7849 11.7076 57.6377C12.5986 55.4928 11.6064 53.0374 9.49022 52.1034C9.18686 52.746 8.89084 53.3928 8.60225 54.0435C8.31425 54.693 8.03366 55.3464 7.76059 56.0038C5.95217 60.357 4.47347 64.8813 3.35558 69.5455C3.19014 70.2357 3.0326 70.9291 2.88307 71.6253C2.73402 72.3194 2.59293 73.0163 2.45989 73.7161ZM12.0964 47.0076C14.0957 48.1707 16.67 47.5323 17.8873 45.5534C20.2677 41.6839 22.9451 38.0151 25.8878 34.5789C27.3996 32.8136 27.2159 30.1718 25.4917 28.6307C25.0041 29.149 24.5225 29.6729 24.0471 30.2025C23.5719 30.7318 23.1028 31.2668 22.64 31.8073C19.5529 35.4119 16.7439 39.261 14.2461 43.3213C13.8737 43.9268 13.5081 44.537 13.1496 45.1517C12.7915 45.7658 12.4403 46.3845 12.0964 47.0076ZM29.5446 24.585C31.0884 26.3061 33.7349 26.4895 35.5032 24.9804C38.9455 22.0429 42.6208 19.3703 46.4971 16.994C48.4795 15.7788 49.119 13.2091 47.9539 11.2133C47.3297 11.5567 46.7099 11.9072 46.0947 12.2647C45.4789 12.6225 44.8676 12.9874 44.2611 13.3592C40.1936 15.8527 36.3377 18.6567 32.7267 21.7383C32.1853 22.2003 31.6494 22.6686 31.1191 23.143C30.5886 23.6175 30.0637 24.0982 29.5446 24.585ZM53.0587 8.61173C53.9943 10.7242 56.454 11.7147 58.6027 10.8252C62.7572 9.10544 67.0747 7.69929 71.5258 6.63623C73.788 6.09593 75.1956 3.85199 74.7095 1.59379C74.0085 1.7266 73.3103 1.86744 72.6151 2.01623C71.9176 2.1655 71.223 2.32276 70.5315 2.4879C65.8591 3.60383 61.3269 5.07992 56.9659 6.88515C56.3074 7.15774 55.6528 7.43783 55.0022 7.72533C54.3503 8.0134 53.7024 8.30891 53.0587 8.61173ZM80.3702 0.705474C80.6024 3.00406 82.6329 4.70818 84.9524 4.5283C87.1979 4.35416 89.4682 4.2654 91.7601 4.2654C94.0521 4.2654 96.3224 4.35416 98.5679 4.5283C100.887 4.70818 102.918 3.00406 103.15 0.705477C102.445 0.617466 101.737 0.53752 101.027 0.465736C100.32 0.394278 99.6106 0.330907 98.8989 0.275718C96.5434 0.0930436 94.1626 0 91.7601 0C89.3577 0 86.9769 0.0930432 84.6214 0.275716C83.9098 0.330905 83.2004 0.394276 82.4934 0.465733C81.7832 0.537518 81.0755 0.617463 80.3702 0.705474ZM108.811 1.59379C108.325 3.852 109.732 6.09593 111.995 6.63623C116.446 7.69929 120.763 9.10544 124.918 10.8252C127.066 11.7147 129.526 10.7242 130.462 8.61174C129.818 8.30892 129.17 8.01341 128.518 7.72534C127.867 7.43784 127.213 7.15774 126.554 6.88515C122.193 5.07993 117.661 3.60383 112.989 2.48791C112.297 2.32276 111.603 2.1655 110.905 2.01623C110.21 1.86745 109.512 1.7266 108.811 1.59379ZM135.566 11.2133C134.401 13.2091 135.041 15.7788 137.023 16.994C140.9 19.3703 144.575 22.0429 148.017 24.9804C149.785 26.4895 152.432 26.3062 153.976 24.585C153.457 24.0983 152.932 23.6176 152.401 23.143C151.871 22.6686 151.335 22.2003 150.794 21.7383C147.183 18.6567 143.327 15.8527 139.259 13.3593C138.653 12.9875 138.041 12.6225 137.426 12.2647C136.81 11.9072 136.191 11.5567 135.566 11.2133ZM158.029 28.6308C156.304 30.1718 156.121 32.8137 157.632 34.5789C160.575 38.0151 163.253 41.6839 165.633 45.5534C166.85 47.5323 169.425 48.1707 171.424 47.0076C171.08 46.3845 170.729 45.7658 170.371 45.1517C170.012 44.537 169.647 43.9268 169.274 43.3214C166.776 39.261 163.967 35.412 160.88 31.8073C160.418 31.2668 159.948 30.7318 159.473 30.2025C158.998 29.6729 158.516 29.149 158.029 28.6308ZM181.06 73.7161C180.927 73.0163 180.786 72.3194 180.637 71.6254C180.488 70.9291 180.33 70.2357 180.165 69.5455C179.047 64.8813 177.568 60.3571 175.76 56.0038C175.487 55.3464 175.206 54.693 174.918 54.0436C174.629 53.3928 174.333 52.7461 174.03 52.1034C171.914 53.0374 170.922 55.4928 171.813 57.6377C173.535 61.7849 174.944 66.0947 176.009 70.538C176.55 72.7962 178.798 74.2013 181.06 73.7161Z" fill="white"/>
<path fill-rule="evenodd" clip-rule="evenodd" d="M91.7601 56.6313L57.5928 90.7383L91.7601 124.845L125.927 90.7383L91.7601 56.6313ZM48.2539 90.7383L91.7601 134.168L135.266 90.7383L91.7601 47.3088L48.2539 90.7383Z" fill="white"/>
<path fill-rule="evenodd" clip-rule="evenodd" d="M91.7598 45.3689C94.1197 45.3689 96.0327 43.4592 96.0327 41.1035C96.0327 38.7478 94.1197 36.8381 91.7598 36.8381C89.3999 36.8381 87.4868 38.7478 87.4868 41.1035C87.4868 43.4592 89.3999 45.3689 91.7598 45.3689ZM91.7598 51.9609C97.7667 51.9609 102.636 47.0999 102.636 41.1035C102.636 35.1071 97.7667 30.2461 91.7598 30.2461C85.7528 30.2461 80.8832 35.1071 80.8832 41.1035C80.8832 47.0999 85.7528 51.9609 91.7598 51.9609Z" fill="white"/>
<path fill-rule="evenodd" clip-rule="evenodd" d="M91.759 53.9011C98.8386 53.9011 104.578 48.172 104.578 41.1049C104.578 37.9566 102.661 33.5893 98.9658 28.6991C96.7519 25.7691 94.1854 23.0269 91.759 20.7422C89.3325 23.0269 86.7661 25.7691 84.5521 28.6991C80.857 33.5893 78.9402 37.9566 78.9402 41.1049C78.9402 48.172 84.6793 53.9011 91.759 53.9011ZM91.759 12.0226C84.3785 17.839 72.3366 30.3971 72.3366 41.1049C72.3366 51.8127 81.0323 60.493 91.759 60.493C102.486 60.493 111.181 51.8127 111.181 41.1049C111.181 30.3971 99.1395 17.839 91.759 12.0226Z" fill="white"/>
<path fill-rule="evenodd" clip-rule="evenodd" d="M91.759 127.575C98.8386 127.575 104.578 133.304 104.578 140.371C104.578 143.519 102.661 147.886 98.9658 152.776C96.7519 155.707 94.1854 158.449 91.759 160.733C89.3325 158.449 86.7661 155.707 84.5521 152.776C80.857 147.886 78.9402 143.519 78.9402 140.371C78.9402 133.304 84.6793 127.575 91.759 127.575ZM91.759 169.453C84.3785 163.637 72.3366 151.079 72.3366 140.371C72.3366 129.663 81.0323 120.983 91.759 120.983C102.486 120.983 111.181 129.663 111.181 140.371C111.181 151.079 99.1395 163.637 91.759 169.453Z" fill="white"/>
<path fill-rule="evenodd" clip-rule="evenodd" d="M55.0524 90.9316C55.0524 97.9987 49.3132 103.728 42.2336 103.728C39.0798 103.728 34.7047 101.814 29.8059 98.1258C26.8707 95.9157 24.1237 93.3537 21.835 90.9316C24.1237 88.5094 26.8707 85.9475 29.8059 83.7374C34.7047 80.0488 39.0798 78.1354 42.2336 78.1354C49.3132 78.1354 55.0524 83.8644 55.0524 90.9316ZM13.1 90.9316C18.9267 83.5641 31.5069 71.5434 42.2336 71.5434C52.9603 71.5434 61.656 80.2238 61.656 90.9316C61.656 101.639 52.9603 110.32 42.2336 110.32C31.5069 110.32 18.9267 98.2991 13.1 90.9316Z" fill="white"/>
<path fill-rule="evenodd" clip-rule="evenodd" d="M128.663 90.9317C128.663 83.8646 134.402 78.1355 141.481 78.1355C144.635 78.1355 149.01 80.0489 153.909 83.7375C156.844 85.9476 159.591 88.5096 161.88 90.9317C159.591 93.3539 156.844 95.9158 153.909 98.1259C149.01 101.814 144.635 103.728 141.481 103.728C134.402 103.728 128.663 97.9988 128.663 90.9317ZM170.615 90.9317C164.788 98.2992 152.208 110.32 141.481 110.32C130.755 110.32 122.059 101.639 122.059 90.9317C122.059 80.2239 130.755 71.5435 141.481 71.5435C152.208 71.5435 164.788 83.5642 170.615 90.9317Z" fill="white"/>
<path fill-rule="evenodd" clip-rule="evenodd" d="M91.7598 144.638C94.1197 144.638 96.0327 142.728 96.0327 140.373C96.0327 138.017 94.1197 136.107 91.7598 136.107C89.3999 136.107 87.4868 138.017 87.4868 140.373C87.4868 142.728 89.3999 144.638 91.7598 144.638ZM91.7598 151.23C97.7667 151.23 102.636 146.369 102.636 140.373C102.636 134.376 97.7667 129.515 91.7598 129.515C85.7528 129.515 80.8832 134.376 80.8832 140.373C80.8832 146.369 85.7528 151.23 91.7598 151.23Z" fill="white"/>
<path fill-rule="evenodd" clip-rule="evenodd" d="M42.0394 95.0036C44.3993 95.0036 46.3123 93.094 46.3123 90.7382C46.3123 88.3825 44.3993 86.4728 42.0394 86.4728C39.6795 86.4728 37.7665 88.3825 37.7665 90.7382C37.7665 93.094 39.6795 95.0036 42.0394 95.0036ZM42.0394 101.596C48.0463 101.596 52.9159 96.7346 52.9159 90.7382C52.9159 84.7419 48.0463 79.8809 42.0394 79.8809C36.0324 79.8809 31.1628 84.7419 31.1628 90.7382C31.1628 96.7346 36.0324 101.596 42.0394 101.596Z" fill="white"/>
<path fill-rule="evenodd" clip-rule="evenodd" d="M141.482 95.0036C143.842 95.0036 145.755 93.094 145.755 90.7382C145.755 88.3825 143.842 86.4728 141.482 86.4728C139.123 86.4728 137.21 88.3825 137.21 90.7382C137.21 93.094 139.123 95.0036 141.482 95.0036ZM141.482 101.596C147.489 101.596 152.359 96.7346 152.359 90.7382C152.359 84.7419 147.489 79.8809 141.482 79.8809C135.475 79.8809 130.606 84.7419 130.606 90.7382C130.606 96.7346 135.475 101.596 141.482 101.596Z" fill="white"/>
<path fill-rule="evenodd" clip-rule="evenodd" d="M91.7594 71.767C93.583 71.767 95.0612 73.2427 95.0612 75.063L95.0612 107.966C95.0612 109.786 93.583 111.262 91.7594 111.262C89.9359 111.262 88.4576 109.786 88.4576 107.966L88.4576 75.063C88.4576 73.2427 89.9359 71.767 91.7594 71.767Z" fill="white"/>
<path fill-rule="evenodd" clip-rule="evenodd" d="M71.9799 90.4175C71.9799 88.5971 73.4582 87.1215 75.2817 87.1215H108.242C110.066 87.1215 111.544 88.5971 111.544 90.4175C111.544 92.2378 110.066 93.7134 108.242 93.7134H75.2817C73.4582 93.7134 71.9799 92.2378 71.9799 90.4175Z" fill="white"/>
<path fill-rule="evenodd" clip-rule="evenodd" d="M77.7737 77.5499C79.0631 76.2627 81.1537 76.2627 82.4431 77.5499L105.75 100.815C107.039 102.103 107.039 104.19 105.75 105.477C104.46 106.764 102.37 106.764 101.08 105.477L77.7737 82.2111C76.4842 80.9239 76.4842 78.837 77.7737 77.5499Z" fill="white"/>
<path fill-rule="evenodd" clip-rule="evenodd" d="M76.9942 104.701C75.7048 103.414 75.7048 101.327 76.9942 100.04L100.301 76.7744C101.59 75.4872 103.681 75.4872 104.97 76.7744C106.26 78.0615 106.26 80.1484 104.97 81.4356L81.6637 104.701C80.3743 105.988 78.2837 105.988 76.9942 104.701Z" fill="white"/>
<path fill-rule="evenodd" clip-rule="evenodd" d="M139.541 45.3685H128.664V56.2259H139.541V45.3685ZM122.061 38.7765V62.8178H146.145V38.7765H122.061Z" fill="white"/>
<path fill-rule="evenodd" clip-rule="evenodd" d="M139.541 125.247H128.664V136.105H139.541V125.247ZM122.061 118.655V142.697H146.145V118.655H122.061Z" fill="white"/>
<path fill-rule="evenodd" clip-rule="evenodd" d="M54.8569 45.3685H43.9803V56.2259H54.8569V45.3685ZM37.3767 38.7765V62.8178H61.4605V38.7765H37.3767Z" fill="white"/>
<path fill-rule="evenodd" clip-rule="evenodd" d="M54.8569 125.247H43.9803V136.105H54.8569V125.247ZM37.3767 118.655V142.697H61.4605V118.655H37.3767Z" fill="white"/>
</svg>
