<svg width="117" height="187" viewBox="0 0 117 187" fill="none" xmlns="http://www.w3.org/2000/svg">
<path d="M4.47327 6.41086C4.47327 2.47193 7.48522 -0.53495 10.8147 0.08005L110.765 1.09987C113.43 1.59223 115.393 4.2772 115.393 7.43068V180.591C115.393 184.13 112.938 187 109.908 187H9.95833C6.92902 187 4.47327 184.13 4.47327 180.591V6.41086Z" fill="#141618"/>
<path d="M32.9854 134.198C32.9854 137.948 29.9453 140.988 26.1951 140.988C22.4449 140.988 19.4048 137.948 19.4048 134.198C19.4048 130.448 22.4449 127.408 26.1951 127.408C29.9453 127.408 32.9854 130.448 32.9854 134.198Z" fill="white"/>
<path fill-rule="evenodd" clip-rule="evenodd" d="M116.104 172.068L0.207092 172.068L0.207092 166.38L116.104 166.38L116.104 172.068Z" fill="white"/>
<path fill-rule="evenodd" clip-rule="evenodd" d="M116.104 17.0646L0.207092 17.0646L0.207092 11.3764L116.104 11.3764L116.104 17.0646Z" fill="white"/>
<path d="M21.8558 50.5841C21.8558 46.5876 25.2391 44.7698 29.4126 44.7698L89.8671 31.5095C94.0407 31.5095 97.424 30.4832 97.424 34.4797V94.4406C97.424 98.4371 94.0407 100.255 89.8671 100.255L29.4126 113.515C25.2391 113.515 21.8558 113.83 21.8558 109.834V50.5841Z" fill="white"/>
<path fill-rule="evenodd" clip-rule="evenodd" d="M42.2317 117.545L42.1457 29.2691L49.6961 29.3776L49.7821 117.653L42.2317 117.545Z" fill="#141618"/>
<path fill-rule="evenodd" clip-rule="evenodd" d="M71.147 117.961L71.0611 29.6854L78.6115 29.7939L78.6974 118.069L71.147 117.961Z" fill="#141618"/>
<path fill-rule="evenodd" clip-rule="evenodd" d="M105.182 81.1203L22.0177 98.7048L20.4733 91.634L103.637 74.0496L105.182 81.1203Z" fill="#141618"/>
<path fill-rule="evenodd" clip-rule="evenodd" d="M99.6369 55.7338L16.4729 73.3182L14.9285 66.2474L98.0925 48.663L99.6369 55.7338Z" fill="#141618"/>
</svg>
