<svg width="172" height="172" viewBox="0 0 172 172" fill="none" xmlns="http://www.w3.org/2000/svg">
<path d="M15.7816 22.7606C15.7816 18.8597 18.9495 15.6974 22.8573 15.6974H148.648C152.556 15.6974 155.724 18.8597 155.724 22.7606V148.33C155.724 152.231 152.556 155.393 148.648 155.393H22.8573C18.9495 155.393 15.7816 152.231 15.7816 148.33V22.7606Z" fill="#141618"/>
<path fill-rule="evenodd" clip-rule="evenodd" d="M164.373 6.67086H7.13433C6.91722 6.67086 6.74123 6.84655 6.74123 7.06326V164.025C6.74123 164.241 6.91723 164.417 7.13432 164.417H164.373C164.59 164.417 164.766 164.241 164.766 164.025V7.06326C164.766 6.84654 164.59 6.67086 164.373 6.67086ZM7.13433 0C3.22651 0 0.0585938 3.16233 0.0585938 7.06326V164.025C0.0585938 167.926 3.2265 171.088 7.13432 171.088H164.373C168.281 171.088 171.449 167.926 171.449 164.025V7.06326C171.449 3.16233 168.281 0 164.373 0H7.13433Z" fill="black"/>
<path fill-rule="evenodd" clip-rule="evenodd" d="M114.379 155.393L114.379 15.6973L121.062 15.6973L121.062 155.393L114.379 155.393Z" fill="white"/>
<path fill-rule="evenodd" clip-rule="evenodd" d="M52.0395 155.393L52.0395 15.6974L58.7222 15.6974L58.7222 155.393L52.0395 155.393Z" fill="white"/>
<path fill-rule="evenodd" clip-rule="evenodd" d="M155.724 56.3361L15.7816 56.3361L15.7816 49.6652L155.724 49.6652L155.724 56.3361Z" fill="white"/>
<path fill-rule="evenodd" clip-rule="evenodd" d="M155.724 119.833L15.7816 119.833L15.7816 113.162L155.724 113.162L155.724 119.833Z" fill="white"/>
<path d="M76.2113 53.796C76.2113 65.7195 66.5284 75.3853 54.5839 75.3853C42.6394 75.3853 32.9564 65.7195 32.9564 53.796C32.9564 41.8725 42.6394 32.2067 54.5839 32.2067C66.5284 32.2067 76.2113 41.8725 76.2113 53.796Z" fill="white"/>
<path d="M76.2113 117.294C76.2113 129.217 66.5284 138.883 54.5839 138.883C42.6394 138.883 32.9564 129.217 32.9564 117.294C32.9564 105.37 42.6394 95.7044 54.5839 95.7044C66.5284 95.7044 76.2113 105.37 76.2113 117.294Z" fill="white"/>
<path d="M138.55 53.796C138.55 65.7195 128.867 75.3853 116.923 75.3853C104.978 75.3853 95.2955 65.7195 95.2955 53.796C95.2955 41.8725 104.978 32.2067 116.923 32.2067C128.867 32.2067 138.55 41.8725 138.55 53.796Z" fill="white"/>
<path d="M138.55 117.294C138.55 129.217 128.867 138.883 116.923 138.883C104.978 138.883 95.2955 129.217 95.2955 117.294C95.2955 105.37 104.978 95.7044 116.923 95.7044C128.867 95.7044 138.55 105.37 138.55 117.294Z" fill="white"/>
<path d="M126.464 53.7958C126.464 59.0561 122.192 63.3205 116.922 63.3205C111.653 63.3205 107.381 59.0561 107.381 53.7958C107.381 48.5354 111.653 44.2711 116.922 44.2711C122.192 44.2711 126.464 48.5354 126.464 53.7958Z" fill="#141618"/>
<path d="M126.464 117.292C126.464 122.553 122.192 126.817 116.922 126.817C111.653 126.817 107.381 122.553 107.381 117.292C107.381 112.032 111.653 107.768 116.922 107.768C122.192 107.768 126.464 112.032 126.464 117.292Z" fill="#141618"/>
<path d="M64.1272 53.7958C64.1272 59.0561 59.8553 63.3205 54.5857 63.3205C49.3161 63.3205 45.0442 59.0561 45.0442 53.7958C45.0442 48.5354 49.3161 44.2711 54.5857 44.2711C59.8553 44.2711 64.1272 48.5354 64.1272 53.7958Z" fill="#141618"/>
<path d="M64.1272 117.292C64.1272 122.553 59.8553 126.817 54.5857 126.817C49.3161 126.817 45.0442 122.553 45.0442 117.292C45.0442 112.032 49.3161 107.768 54.5857 107.768C59.8553 107.768 64.1272 112.032 64.1272 117.292Z" fill="#141618"/>
</svg>
