<svg width="200" height="200" viewBox="0 0 200 200" fill="none" xmlns="http://www.w3.org/2000/svg">
<path d="M29.723 36.7606C29.723 32.8597 32.8909 29.6974 36.7988 29.6974H162.59C166.497 29.6974 169.665 32.8597 169.665 36.7606V162.33C169.665 166.231 166.497 169.393 162.59 169.393H36.7988C32.8909 169.393 29.723 166.231 29.723 162.33V36.7606Z" fill="#141618"/>
<path fill-rule="evenodd" clip-rule="evenodd" d="M178.314 20.6709H21.0757C20.8586 20.6709 20.6826 20.8465 20.6826 21.0633V178.025C20.6826 178.241 20.8586 178.417 21.0757 178.417H178.314C178.531 178.417 178.707 178.241 178.707 178.025V21.0633C178.707 20.8465 178.531 20.6709 178.314 20.6709ZM21.0757 14C17.1679 14 14 17.1623 14 21.0633V178.025C14 181.926 17.1679 185.088 21.0757 185.088H178.314C182.222 185.088 185.39 181.926 185.39 178.025V21.0633C185.39 17.1623 182.222 14 178.314 14H21.0757Z" fill="black"/>
<path fill-rule="evenodd" clip-rule="evenodd" d="M128.32 169.393L128.32 29.6973L135.003 29.6973L135.003 169.393L128.32 169.393Z" fill="white"/>
<path fill-rule="evenodd" clip-rule="evenodd" d="M65.9809 169.393L65.9809 29.6974L72.6636 29.6974L72.6636 169.393L65.9809 169.393Z" fill="white"/>
<path fill-rule="evenodd" clip-rule="evenodd" d="M169.665 70.3361L29.723 70.3361L29.723 63.6652L169.665 63.6652L169.665 70.3361Z" fill="white"/>
<path fill-rule="evenodd" clip-rule="evenodd" d="M169.665 133.833L29.723 133.833L29.723 127.162L169.665 127.162L169.665 133.833Z" fill="white"/>
<path d="M90.1527 67.796C90.1527 79.7195 80.4698 89.3853 68.5253 89.3853C56.5808 89.3853 46.8978 79.7195 46.8978 67.796C46.8978 55.8725 56.5808 46.2067 68.5253 46.2067C80.4698 46.2067 90.1527 55.8725 90.1527 67.796Z" fill="white"/>
<path d="M90.1527 131.294C90.1527 143.217 80.4698 152.883 68.5253 152.883C56.5808 152.883 46.8978 143.217 46.8978 131.294C46.8978 119.37 56.5808 109.704 68.5253 109.704C80.4698 109.704 90.1527 119.37 90.1527 131.294Z" fill="white"/>
<path d="M152.492 67.796C152.492 79.7195 142.809 89.3853 130.864 89.3853C118.92 89.3853 109.237 79.7195 109.237 67.796C109.237 55.8725 118.92 46.2067 130.864 46.2067C142.809 46.2067 152.492 55.8725 152.492 67.796Z" fill="white"/>
<path d="M152.492 131.294C152.492 143.217 142.809 152.883 130.864 152.883C118.92 152.883 109.237 143.217 109.237 131.294C109.237 119.37 118.92 109.704 130.864 109.704C142.809 109.704 152.492 119.37 152.492 131.294Z" fill="white"/>
<path d="M140.405 67.7958C140.405 73.0561 136.134 77.3205 130.864 77.3205C125.594 77.3205 121.322 73.0561 121.322 67.7958C121.322 62.5354 125.594 58.2711 130.864 58.2711C136.134 58.2711 140.405 62.5354 140.405 67.7958Z" fill="#141618"/>
<path d="M140.405 131.292C140.405 136.553 136.134 140.817 130.864 140.817C125.594 140.817 121.322 136.553 121.322 131.292C121.322 126.032 125.594 121.768 130.864 121.768C136.134 121.768 140.405 126.032 140.405 131.292Z" fill="#141618"/>
<path d="M78.0686 67.7958C78.0686 73.0561 73.7967 77.3205 68.5271 77.3205C63.2575 77.3205 58.9856 73.0561 58.9856 67.7958C58.9856 62.5354 63.2575 58.2711 68.5271 58.2711C73.7967 58.2711 78.0686 62.5354 78.0686 67.7958Z" fill="#141618"/>
<path d="M78.0686 131.292C78.0686 136.553 73.7967 140.817 68.5271 140.817C63.2575 140.817 58.9856 136.553 58.9856 131.292C58.9856 126.032 63.2575 121.768 68.5271 121.768C73.7967 121.768 78.0686 126.032 78.0686 131.292Z" fill="#141618"/>
</svg>
