<svg width="175" height="188" viewBox="0 0 175 188" fill="none" xmlns="http://www.w3.org/2000/svg">
<path d="M0.871094 70.356C0.871094 61.2499 5.46638 52.7565 13.0948 47.7631L84.6391 0.931415C86.5363 -0.31047 88.9908 -0.310472 90.888 0.931413L162.432 47.7631C170.061 52.7565 174.656 61.2499 174.656 70.356V181.608C174.656 184.749 172.105 187.295 168.958 187.295H6.56896C3.42212 187.295 0.871094 184.749 0.871094 181.608V70.356Z" fill="#141618"/>
<path fill-rule="evenodd" clip-rule="evenodd" d="M73.6022 23.3676C75.147 22.2393 76.9947 22.172 79.0027 22.172C80.6745 22.172 82.0297 23.5249 82.0297 25.1937C82.0297 26.8625 80.6745 28.2153 79.0027 28.2153C77.8315 28.2153 77.3119 28.277 77.1211 28.308C77.0627 28.3725 76.958 28.4915 76.7803 28.7036L76.7364 28.7561C76.3897 29.1702 75.8969 29.7588 75.1802 30.4715C75.1722 30.4795 75.0224 30.6404 74.8931 31.2021C74.7654 31.7565 74.706 32.4911 74.7125 33.406C74.719 34.3115 74.7872 35.2628 74.8627 36.2535C74.8675 36.3163 74.8724 36.3797 74.8773 36.4435C74.945 37.3276 75.0194 38.2985 75.0194 39.1363C75.0194 39.7472 75.1898 40.6877 75.5113 42.1156C75.5594 42.3295 75.6106 42.5529 75.6635 42.7839C75.9302 43.9483 76.2414 45.307 76.4365 46.6203C76.6679 48.1783 76.798 50.0248 76.3644 51.7717C75.8953 53.6617 74.7573 55.4284 72.6409 56.4807C71.1445 57.2248 69.3272 56.617 68.5819 55.1232C67.8365 53.6294 68.4454 51.8153 69.9418 51.0713C70.2258 50.9301 70.3758 50.7708 70.4881 50.3181C70.6361 49.7223 70.6414 48.8093 70.448 47.5065C70.2907 46.4474 70.0432 45.364 69.7777 44.2021C69.7206 43.9522 69.6627 43.6987 69.6047 43.4409C69.3075 42.1212 68.9654 40.5285 68.9654 39.1363C68.9654 38.5374 68.9077 37.7807 68.8319 36.786L68.8262 36.712C68.752 35.7381 68.6668 34.591 68.6587 33.4491C68.6506 32.3165 68.7152 31.0547 68.9929 29.8486C69.2689 28.6497 69.8056 27.286 70.9076 26.1901C71.4268 25.6737 71.7721 25.2615 72.1072 24.8614L72.1362 24.8268C72.1524 24.8074 72.1692 24.7873 72.1866 24.7665C72.4872 24.4066 72.9684 23.8304 73.6022 23.3676ZM94.9261 25.1937C94.9261 23.5249 96.2813 22.172 97.953 22.172C99.961 22.172 101.809 22.2393 103.354 23.3676C103.987 23.8305 104.469 24.4066 104.769 24.7665C104.787 24.7874 104.803 24.8075 104.82 24.8268L104.849 24.8615C105.184 25.2616 105.529 25.6738 106.048 26.1901C107.15 27.286 107.687 28.6497 107.963 29.8486C108.241 31.0547 108.305 32.3165 108.297 33.4491C108.289 34.591 108.204 35.7381 108.13 36.712L108.124 36.7858C108.048 37.7806 107.99 38.5374 107.99 39.1363C107.99 40.5285 107.648 42.1212 107.351 43.4409C107.293 43.6986 107.235 43.9521 107.178 44.202C106.913 45.3639 106.665 46.4474 106.508 47.5065C106.314 48.8093 106.32 49.7223 106.468 50.3181C106.58 50.7708 106.73 50.9301 107.014 51.0713C108.51 51.8153 109.119 53.6294 108.374 55.1232C107.629 56.617 105.811 57.2248 104.315 56.4807C102.198 55.4284 101.061 53.6617 100.591 51.7717C100.158 50.0248 100.288 48.1783 100.519 46.6203C100.714 45.3071 101.026 43.9485 101.292 42.7841C101.345 42.553 101.396 42.3295 101.444 42.1156C101.766 40.6877 101.936 39.7472 101.936 39.1363C101.936 38.2985 102.011 37.3277 102.078 36.4437C102.083 36.3798 102.088 36.3164 102.093 36.2535C102.169 35.2628 102.237 34.3115 102.243 33.406C102.25 32.4911 102.19 31.7565 102.063 31.2021C101.933 30.6404 101.784 30.4795 101.776 30.4715C101.059 29.7588 100.566 29.1701 100.219 28.756L100.175 28.7036C99.9977 28.4915 99.8931 28.3725 99.8347 28.308C99.6439 28.277 99.1243 28.2153 97.953 28.2153C96.2813 28.2153 94.9261 26.8625 94.9261 25.1937ZM85.3121 36.8119C86.9838 36.8119 88.339 38.1647 88.339 39.8335C88.339 44.3808 88.3309 48.7131 87.3397 52.741C86.3109 56.9217 84.2551 60.6992 80.3759 64.3424C79.3624 65.2943 78.3367 66.109 77.3694 66.8287C77.61 66.8323 77.8636 66.8629 78.1282 66.929C79.0953 67.1704 79.6972 67.7644 80.0361 68.2191C81.6798 68.3971 83.072 69.2258 83.9344 70.6383C84.7606 71.9913 84.8819 73.5347 84.8521 74.6653C84.7908 76.9861 84.0148 79.4478 83.6047 80.5897C83.433 81.068 83.221 81.5064 82.9758 81.9068C83.4474 81.6039 84.0088 81.4282 84.6112 81.4282C86.283 81.4282 87.6382 82.7811 87.6382 84.4499C87.6382 86.1838 87.2286 87.8786 86.8212 89.3159C86.6509 89.9166 86.4886 90.4519 86.3355 90.9564C86.0814 91.7941 85.853 92.5469 85.6571 93.3734C85.0792 95.8122 85.2436 97.1574 86.436 98.3432C87.3543 99.2564 88.0168 100.307 88.4779 101.428C88.939 100.307 89.6015 99.2564 90.5198 98.3432C91.7122 97.1574 91.8766 95.8122 91.2987 93.3734C91.1028 92.5469 90.8744 91.7941 90.6203 90.9563C90.4672 90.4519 90.3048 89.9166 90.1346 89.3159C89.7272 87.8786 89.3176 86.1838 89.3176 84.4499C89.3176 82.7811 90.6728 81.4282 92.3445 81.4282C92.947 81.4282 93.5083 81.6039 93.98 81.9068C93.7348 81.5064 93.5228 81.068 93.351 80.5897C92.9409 79.4478 92.165 76.9861 92.1037 74.6653C92.0739 73.5347 92.1952 71.9913 93.0213 70.6383C93.8838 69.2258 95.276 68.3971 96.9197 68.2191C97.2586 67.7644 97.8605 67.1704 98.8276 66.929C99.0922 66.8629 99.3458 66.8323 99.5864 66.8287C98.6191 66.109 97.5934 65.2943 96.5799 64.3424C92.7007 60.6992 90.6449 56.9217 89.6161 52.741C88.6249 48.7131 88.6167 44.3808 88.6167 39.8335C88.6167 38.1647 89.972 36.8119 91.6437 36.8119C93.3155 36.8119 94.6707 38.1647 94.6707 39.8335C94.6707 44.5345 94.7101 48.1089 95.4953 51.2993C96.2428 54.337 97.6922 57.0896 100.728 59.941C101.888 61.0297 103.105 61.9264 104.392 62.845C104.524 62.9397 104.659 63.0355 104.795 63.1324C105.926 63.9363 107.165 64.8174 108.262 65.7997C109.534 66.9394 110.732 68.3117 111.592 70.1135C112.455 71.9214 112.898 73.9932 112.898 76.4329C112.898 78.9363 111.542 80.9179 110.011 82.2558C108.471 83.6023 106.501 84.5437 104.538 85.045C102.588 85.5432 100.379 85.6733 98.3581 85.102C97.2111 84.7778 96.0919 84.2097 95.1656 83.3522C95.2986 83.6924 95.3715 84.0626 95.3715 84.4499C95.3715 85.3097 95.5822 86.3379 95.9599 87.6707C96.0671 88.0491 96.1974 88.4807 96.3362 88.9408C96.6273 89.9055 96.9562 90.9953 97.19 91.9823C97.9306 95.1074 98.2508 99.1855 94.7924 102.625C93.8542 103.558 93.3309 105.554 93.8019 108.441C94.2564 111.227 95.5 113.854 96.7062 115.203C97.7986 116.425 98.9111 117.852 99.8073 119.386C99.8158 119.392 99.8256 119.399 99.8367 119.407C100.004 119.524 100.223 119.645 100.671 119.885C100.707 119.904 100.745 119.925 100.786 119.946C101.502 120.327 103.008 121.127 103.909 122.65C104.286 123.288 104.794 123.787 105.641 124.621C105.753 124.732 105.872 124.849 105.998 124.972C106.956 125.92 108.241 127.247 109.018 129.18C109.41 130.154 109.924 131.158 110.523 132.329C110.599 132.478 110.677 132.629 110.756 132.784C111.421 134.087 112.166 135.58 112.705 137.133C113.827 140.363 114.174 144.258 111.244 148.005C109.487 150.252 107.114 151.622 105.43 152.594C105.103 152.783 104.801 152.957 104.536 153.12C102.772 154.198 101.917 155.009 101.569 156.564C101.578 156.526 101.562 156.591 101.539 156.837C101.518 157.056 101.498 157.332 101.476 157.67C101.463 157.885 101.449 158.13 101.434 158.391C101.404 158.899 101.371 159.47 101.332 160.004C101.273 160.82 101.189 161.73 101.048 162.516C100.978 162.903 100.877 163.358 100.719 163.796C100.62 164.071 100.373 164.719 99.8126 165.295C99.7987 165.325 99.7784 165.368 99.7447 165.438C99.6862 165.559 99.5575 165.823 99.3697 166.097C99.253 166.268 99.0629 166.519 98.7811 166.77C98.7382 166.937 98.6815 167.097 98.6122 167.251C98.6099 167.267 98.6076 167.282 98.6051 167.298C98.4544 168.251 97.999 169.04 97.5088 169.649C97.2685 169.948 96.6116 170.715 95.832 171.342C95.4719 171.632 94.8461 172.091 94.0591 172.343C93.1922 172.62 91.5096 172.775 90.2418 171.357C90.0242 171.113 89.8604 170.861 89.7379 170.611C89.5845 170.528 89.4314 170.431 89.2811 170.316C88.9448 170.061 88.6814 169.765 88.4779 169.458C88.2744 169.765 88.0109 170.061 87.6747 170.316C87.5243 170.431 87.3713 170.528 87.2178 170.611C87.0954 170.861 86.9316 171.113 86.714 171.357C85.4461 172.775 83.7636 172.62 82.8967 172.343C82.1096 172.091 81.4839 171.632 81.1238 171.342C80.3442 170.715 79.6873 169.948 79.4469 169.649C78.9568 169.04 78.5014 168.251 78.3506 167.298C78.3482 167.282 78.3458 167.267 78.3436 167.251C78.2743 167.097 78.2176 166.937 78.1746 166.77C77.8929 166.519 77.7027 166.268 77.5861 166.097C77.3983 165.823 77.2696 165.559 77.2111 165.438C77.1774 165.368 77.1571 165.325 77.1432 165.295C76.5828 164.719 76.3357 164.071 76.2368 163.796C76.079 163.358 75.9782 162.903 75.9082 162.516C75.7666 161.73 75.6829 160.82 75.6236 160.004C75.5848 159.47 75.5517 158.899 75.5222 158.391C75.507 158.13 75.4928 157.885 75.4793 157.67C75.458 157.332 75.4379 157.056 75.417 156.837C75.3974 156.633 75.3842 156.554 75.3842 156.554C75.3842 156.554 75.3851 156.557 75.3865 156.564C75.0391 155.009 74.1841 154.198 72.4201 153.12C72.1544 152.957 71.8531 152.783 71.5258 152.594C69.842 151.622 67.4693 150.252 65.7121 148.005C62.7813 144.258 63.1285 140.363 64.2504 137.133C64.79 135.58 65.5353 134.087 66.1999 132.784C66.2788 132.629 66.3564 132.478 66.4326 132.329C67.0316 131.158 67.5454 130.154 67.9373 129.18C68.7146 127.247 69.9995 125.92 70.9581 124.972C71.0835 124.849 71.2023 124.732 71.3151 124.621C72.1621 123.788 72.6693 123.289 73.0471 122.65C73.9478 121.127 75.4536 120.327 76.1698 119.946C76.2107 119.925 76.2491 119.904 76.2845 119.885C76.7328 119.645 76.9519 119.524 77.119 119.407C77.1302 119.399 77.14 119.392 77.1485 119.386C78.0446 117.852 79.1571 116.425 80.2496 115.203C81.4558 113.854 82.6994 111.227 83.1539 108.441C83.6249 105.554 83.1016 103.558 82.1634 102.625C78.705 99.1855 79.0252 95.1074 79.7657 91.9823C79.9996 90.9953 80.3285 89.9054 80.6196 88.9407C80.7584 88.4806 80.8886 88.049 80.9959 87.6707C81.3736 86.3379 81.5842 85.3097 81.5842 84.4499C81.5842 84.0626 81.6572 83.6924 81.7902 83.3522C80.8638 84.2097 79.7447 84.7778 78.5976 85.102C76.5767 85.6733 74.368 85.5432 72.4174 85.045C70.455 84.5437 68.4852 83.6023 66.9448 82.2558C65.4142 80.9179 64.0582 78.9363 64.0582 76.4329C64.0582 73.9932 64.5007 71.9214 65.3636 70.1135C66.2238 68.3117 67.4221 66.9394 68.6942 65.7997C69.7907 64.8173 71.0297 63.9363 72.1604 63.1324C72.2966 63.0355 72.4313 62.9397 72.564 62.845C73.851 61.9264 75.0682 61.0297 76.2275 59.941C79.2635 57.0896 80.713 54.337 81.4605 51.2993C82.2456 48.1089 82.2851 44.5345 82.2851 39.8335C82.2851 38.1647 83.6403 36.8119 85.3121 36.8119ZM81.6235 169.836C81.6235 169.836 81.6205 169.83 81.6155 169.818C81.6212 169.83 81.6235 169.836 81.6235 169.836ZM87.5124 163.421C87.4997 163.267 87.4784 163.112 87.4482 162.956C87.1372 161.355 85.9516 160.116 84.3494 159.661C83.6898 159.474 82.8082 159.322 81.8613 159.554C81.7943 159.571 81.7288 159.589 81.6648 159.608C81.6637 159.594 81.6627 159.58 81.6617 159.567C81.6256 159.069 81.598 158.591 81.5705 158.116C81.5546 157.841 81.5387 157.567 81.5213 157.291C81.4827 156.677 81.4274 155.839 81.2952 155.248C80.4059 151.268 77.8001 149.322 75.5823 147.966C75.1021 147.673 74.6564 147.411 74.2406 147.166C72.6217 146.215 71.4567 145.53 70.4839 144.286C69.271 142.736 69.2374 141.223 69.9702 139.113C70.358 137.997 70.9254 136.838 71.5943 135.527C71.6689 135.381 71.7452 135.232 71.8227 135.081C72.4044 133.946 73.0534 132.679 73.5553 131.431C73.8355 130.735 74.3266 130.148 75.2184 129.266C75.3142 129.171 75.4183 129.07 75.5288 128.963C76.3165 128.197 77.4317 127.113 78.2443 125.749C78.2566 125.744 78.4178 125.602 79.1519 125.208C79.1772 125.194 79.2036 125.18 79.231 125.165C79.5858 124.975 80.1156 124.692 80.6038 124.349C81.152 123.964 81.8299 123.384 82.3297 122.514C82.9685 121.402 83.8308 120.274 84.7667 119.227C86.3541 117.451 87.6652 114.908 88.4779 112.213C89.2906 114.908 90.6016 117.451 92.1891 119.227C93.1249 120.274 93.9873 121.402 94.6261 122.514C95.1259 123.384 95.8038 123.964 96.352 124.349C96.8402 124.692 97.37 124.975 97.7248 125.165C97.7522 125.18 97.7786 125.194 97.8038 125.208C98.5386 125.602 98.6994 125.745 98.7115 125.749C99.5241 127.113 100.639 128.197 101.427 128.963C101.537 129.07 101.642 129.171 101.737 129.266C102.629 130.148 103.12 130.735 103.4 131.431C103.902 132.679 104.551 133.946 105.133 135.081C105.211 135.232 105.287 135.381 105.361 135.527C106.03 136.838 106.598 137.997 106.986 139.113C107.718 141.223 107.685 142.736 106.472 144.286C105.499 145.53 104.334 146.215 102.715 147.166C102.299 147.411 101.854 147.673 101.374 147.966C99.1556 149.322 96.5499 151.268 95.6605 155.248C95.5283 155.839 95.4731 156.677 95.4345 157.291C95.417 157.567 95.4012 157.841 95.3853 158.117C95.3578 158.592 95.3302 159.069 95.294 159.567C95.293 159.58 95.292 159.594 95.291 159.608C95.2269 159.589 95.1614 159.571 95.0945 159.554C94.1476 159.322 93.266 159.474 92.6064 159.661C91.0042 160.116 89.8186 161.355 89.5076 162.956C89.4774 163.112 89.4561 163.267 89.4434 163.421C89.0801 163.715 88.743 164.082 88.4779 164.539C88.2128 164.082 87.8757 163.715 87.5124 163.421ZM95.3323 169.836C95.3323 169.836 95.3343 169.83 95.3403 169.818C95.3356 169.829 95.3323 169.836 95.3323 169.836ZM93.4673 167.398L93.6436 167.702ZM93.4673 167.398L93.6436 167.702ZM99.889 165.14C99.889 165.14 99.8846 165.149 99.8752 165.165C99.8842 165.147 99.889 165.14 99.889 165.14ZM103.468 69.666C103.554 69.8096 103.638 69.9553 103.72 70.1017C104.221 71.0037 104.706 72.0757 105.066 73.1299C105.398 74.1049 105.736 75.3872 105.678 76.5939C105.657 77.0155 105.581 77.6143 105.308 78.2349C105.574 78.0685 105.814 77.8918 106.023 77.7092C106.742 77.0807 106.844 76.6244 106.844 76.4329C106.844 74.7446 106.543 73.5852 106.127 72.7132C105.708 71.8353 105.091 71.0793 104.218 70.2972C103.979 70.0833 103.73 69.8747 103.468 69.666ZM71.6479 78.2349C71.375 77.6143 71.2986 77.0155 71.2781 76.5939C71.2195 75.3872 71.5579 74.1049 71.8902 73.1299C72.2495 72.0757 72.7348 71.0037 73.2363 70.1017C73.3177 69.9553 73.4016 69.8096 73.4876 69.666C73.2258 69.8747 72.9768 70.0833 72.7379 70.2972C71.865 71.0793 71.2479 71.8353 70.8289 72.7132C70.4126 73.5852 70.1122 74.7446 70.1122 76.4329C70.1122 76.6244 70.214 77.0807 70.9331 77.7092C71.1419 77.8918 71.3821 78.0685 71.6479 78.2349ZM57.4754 41.5923C57.6593 43.251 56.4614 44.7445 54.7997 44.928C54.2359 44.9903 53.9155 45.202 53.5883 45.8263C53.1732 46.6182 52.8939 47.8931 52.8061 49.628C52.7209 51.3107 52.826 53.1347 52.967 54.8617C52.9994 55.2584 53.0356 55.6674 53.0718 56.0755C53.1801 57.2955 53.2875 58.5066 53.2875 59.353C53.2875 61.0218 51.9323 62.3746 50.2605 62.3746C48.5888 62.3746 47.2335 61.0218 47.2335 59.353C47.2335 58.7932 47.1638 58.005 47.0681 56.9241C47.0267 56.4567 46.9805 55.9346 46.933 55.3526C46.7873 53.5685 46.6537 51.4194 46.7598 49.323C46.8633 47.2787 47.2054 44.9683 48.2242 43.0246C49.3308 40.9135 51.2566 39.2393 54.1337 38.9214C55.7953 38.7378 57.2914 39.9336 57.4754 41.5923ZM119.48 41.5923C119.664 39.9336 121.16 38.7378 122.822 38.9214C125.699 39.2393 127.625 40.9135 128.732 43.0246C129.75 44.9683 130.092 47.2787 130.196 49.323C130.302 51.4194 130.168 53.5685 130.023 55.3526C129.975 55.9346 129.929 56.4567 129.888 56.9241C129.792 58.005 129.722 58.7932 129.722 59.353C129.722 61.0218 128.367 62.3746 126.695 62.3746C125.023 62.3746 123.668 61.0218 123.668 59.353C123.668 58.5066 123.776 57.2955 123.884 56.0755C123.92 55.6675 123.956 55.2585 123.989 54.8617C124.13 53.1347 124.235 51.3107 124.15 49.628C124.062 47.8931 123.783 46.6182 123.368 45.8263C123.04 45.202 122.72 44.9903 122.156 44.928C120.494 44.7445 119.297 43.251 119.48 41.5923ZM58.6728 53.5429C60.3446 53.5429 61.6998 54.8958 61.6998 56.5646C61.6998 62.1632 60.0795 66.4022 56.2524 70.2079C54.6738 71.7778 52.7478 72.7518 51.2699 73.4992C51.205 73.532 51.1409 73.5644 51.0778 73.5964C49.4353 74.4288 48.2603 75.0572 47.3337 75.9786C41.1971 82.0811 39.9678 89.3974 39.9678 98.741C39.9678 101.562 41.801 103.774 44.7657 106.957C44.8835 107.083 45.0039 107.212 45.1265 107.343C47.686 110.078 51.1843 113.817 51.1843 118.958C51.1843 119.152 51.2023 119.381 51.2328 119.768C51.2393 119.851 51.2464 119.941 51.254 120.039C51.2905 120.512 51.337 121.172 51.3024 121.837C51.2694 122.472 51.1528 123.418 50.6501 124.329C50.0694 125.381 49.0787 126.187 47.76 126.478C47.6644 126.499 47.581 126.524 47.434 126.569C47.2895 126.612 47.0836 126.675 46.7442 126.77C46.2316 126.913 45.4915 127.103 44.7138 127.172C44.0046 127.234 42.7789 127.246 41.6213 126.565C40.2278 125.745 39.6089 124.349 39.5273 122.97C39.4627 121.877 39.4666 120.322 40.1552 118.875C40.9284 117.25 42.3409 116.191 44.1619 115.741C43.3466 114.361 42.0402 112.905 40.3324 111.072C40.2722 111.007 40.2115 110.942 40.1502 110.877C37.519 108.055 33.9138 104.189 33.9138 98.741C33.9138 88.9409 35.1679 79.5465 43.0611 71.6972C44.7352 70.0324 46.726 69.0239 48.2495 68.2522L48.3373 68.2077C50.0139 67.3581 51.1301 66.7715 51.9798 65.9265C54.5594 63.3613 55.6459 60.7141 55.6459 56.5646C55.6459 54.8958 57.0011 53.5429 58.6728 53.5429ZM43.8329 120.679C43.8329 120.679 43.8359 120.686 43.8391 120.704C43.8341 120.688 43.8329 120.679 43.8329 120.679ZM118.283 53.5429C119.955 53.5429 121.31 54.8958 121.31 56.5646C121.31 60.7141 122.396 63.3613 124.976 65.9265C125.826 66.7715 126.942 67.3581 128.618 68.2077L128.706 68.2522C130.23 69.024 132.221 70.0324 133.895 71.6972C141.788 79.5465 143.042 88.9409 143.042 98.741C143.042 104.189 139.437 108.055 136.806 110.877C136.744 110.942 136.684 111.007 136.623 111.072C134.916 112.905 133.609 114.361 132.794 115.741C134.615 116.191 136.027 117.25 136.801 118.875C137.489 120.322 137.493 121.877 137.428 122.97C137.347 124.349 136.728 125.745 135.334 126.565C134.177 127.246 132.951 127.234 132.242 127.172C131.464 127.103 130.724 126.913 130.212 126.77C129.872 126.675 129.666 126.612 129.522 126.569C129.375 126.524 129.291 126.499 129.196 126.478C127.877 126.187 126.886 125.381 126.306 124.329C125.803 123.418 125.686 122.472 125.653 121.837C125.619 121.172 125.665 120.512 125.702 120.039C125.709 119.941 125.716 119.851 125.723 119.769C125.753 119.381 125.771 119.152 125.771 118.958C125.771 113.817 129.27 110.078 131.829 107.343C131.952 107.212 132.072 107.083 132.19 106.957C135.155 103.774 136.988 101.562 136.988 98.741C136.988 89.3974 135.759 82.0811 129.622 75.9786C128.695 75.0572 127.521 74.4288 125.878 73.5964C125.815 73.5644 125.751 73.532 125.686 73.4992C124.208 72.7518 122.282 71.7777 120.703 70.2079C116.876 66.4022 115.256 62.1632 115.256 56.5646C115.256 54.8958 116.611 53.5429 118.283 53.5429ZM133.123 120.679C133.123 120.679 133.122 120.688 133.117 120.704C133.12 120.686 133.123 120.679 133.123 120.679ZM39.0239 59.8388C40.204 60.2895 41.0857 60.5141 41.8481 60.5141C43.5199 60.5141 44.8751 61.8669 44.8751 63.5358C44.8751 65.2046 43.5199 66.5574 41.8481 66.5574C39.961 66.5574 38.2452 66.0119 36.8605 65.483C36.1557 65.2138 35.6045 64.9823 35.106 64.7728C34.4486 64.4967 33.8829 64.259 33.1774 64.0243C32.1212 63.6729 31.4207 63.5942 30.8728 63.687C30.4033 63.7665 29.7275 64.0245 28.8272 65.0192C28.6251 65.2426 28.2812 66.0276 28.127 67.7134C28.0179 68.9068 28.0307 70.0946 28.0428 71.2221C28.0466 71.571 28.0503 71.9141 28.0503 72.2499C28.0503 73.1634 28.4816 74.1659 29.3919 75.9257C29.4393 76.0174 29.4886 76.112 29.5393 76.2095C30.3082 77.6859 31.4182 79.8174 31.5507 82.19C31.5763 82.647 31.6966 83.1011 31.9177 83.6678C32.0256 83.9446 32.1435 84.2144 32.2868 84.5424L32.3154 84.6079C32.4613 84.942 32.6392 85.351 32.7953 85.7766C33.1115 86.6383 33.4272 87.792 33.2815 89.141C33.132 90.5255 32.5352 91.789 31.5896 92.9644C29.7787 95.2155 26.9314 95.5171 24.9763 95.2918C23.0209 95.0664 20.6611 94.184 19.288 92.4284C18.8083 91.8152 18.197 90.503 18.9188 89.0414C19.3639 88.1401 20.099 87.7071 20.4688 87.5296C20.4869 87.4286 20.5106 87.3245 20.5412 87.218C20.8173 86.2549 21.58 85.3868 22.7065 85.0791C23.5723 84.8426 24.2852 85.0435 24.5669 85.1371C25.1819 85.3416 25.6383 85.6919 25.8633 85.8769C26.1103 86.08 26.344 86.3089 26.5593 86.5479C26.4671 86.3331 26.3697 86.1003 26.2763 85.8608C25.931 84.9755 25.5806 83.8594 25.5062 82.5265C25.4513 81.5445 24.9508 80.512 24.0127 78.6985C23.9932 78.6607 23.9734 78.6225 23.9534 78.5839C23.16 77.0518 21.9963 74.8046 21.9963 72.2499C21.9963 72.0273 21.9932 71.7654 21.9898 71.4733C21.9764 70.3223 21.9575 68.7013 22.0981 67.164C22.2631 65.3596 22.6982 62.7765 24.335 60.9679C25.9774 59.1532 27.8189 58.0743 29.8607 57.7287C31.8241 57.3964 33.6289 57.8044 35.0914 58.291C35.9257 58.5685 36.9499 58.9918 37.8194 59.3511C38.282 59.5423 38.7007 59.7153 39.0239 59.8388ZM24.0804 90.5605L24.6434 90.307ZM140.095 65.483C138.711 66.0119 136.995 66.5574 135.108 66.5574C133.436 66.5574 132.081 65.2046 132.081 63.5358C132.081 61.8669 133.436 60.5141 135.108 60.5141C135.87 60.5141 136.752 60.2895 137.932 59.8388C138.255 59.7153 138.674 59.5423 139.136 59.3511C140.006 58.9918 141.03 58.5685 141.864 58.291C143.327 57.8044 145.132 57.3964 147.095 57.7287C149.137 58.0743 150.978 59.1532 152.621 60.9679C154.258 62.7765 154.693 65.3596 154.858 67.164C154.998 68.7013 154.979 70.3223 154.966 71.4733C154.963 71.7654 154.959 72.0273 154.959 72.2499C154.959 74.8046 153.796 77.0518 153.002 78.5839L152.943 78.6985C152.005 80.512 151.504 81.5445 151.45 82.5265C151.375 83.8594 151.025 84.9755 150.679 85.8608C150.586 86.1003 150.489 86.3331 150.397 86.5479C150.612 86.3089 150.845 86.08 151.092 85.8769C151.317 85.6919 151.774 85.3416 152.389 85.1371C152.671 85.0435 153.383 84.8426 154.249 85.0791C155.376 85.3868 156.138 86.2549 156.415 87.218C156.445 87.3245 156.469 87.4286 156.487 87.5296C156.857 87.7071 157.592 88.1401 158.037 89.0414C158.759 90.503 158.147 91.8152 157.668 92.4284C156.295 94.184 153.935 95.0664 151.979 95.2918C150.024 95.5171 147.177 95.2155 145.366 92.9644C144.421 91.789 143.824 90.5255 143.674 89.141C143.529 87.792 143.844 86.6383 144.16 85.7766C144.317 85.351 144.494 84.942 144.64 84.6079L144.669 84.5426C144.812 84.2146 144.93 83.9447 145.038 83.6678C145.259 83.1011 145.38 82.647 145.405 82.19C145.538 79.8174 146.648 77.6858 147.416 76.2094C147.467 76.112 147.516 76.0173 147.564 75.9257C148.474 74.1659 148.906 73.1634 148.906 72.2499C148.906 71.9141 148.909 71.571 148.913 71.2221C148.925 70.0946 148.938 68.9068 148.829 67.7134C148.675 66.0276 148.331 65.2426 148.129 65.0192C147.228 64.0245 146.552 63.7665 146.083 63.687C145.535 63.5942 144.835 63.6729 143.778 64.0243C143.073 64.259 142.507 64.4967 141.85 64.7728C141.351 64.9823 140.8 65.2138 140.095 65.483ZM151.022 88.9526L151.393 89.2744ZM56.5425 95.6826C56.2641 96.2895 56.0915 96.9846 56.0915 97.6953C56.0915 98.1126 56.0754 98.6394 56.0619 99.0817C56.0545 99.326 56.0478 99.5445 56.0451 99.7044C56.035 100.293 56.0524 100.701 56.1046 101.021C56.1533 101.319 56.221 101.462 56.2704 101.54C56.3115 101.605 56.4091 101.736 56.698 101.905C57.4398 102.339 58.3786 102.965 59.2536 103.63C60.081 104.259 61.0653 105.081 61.734 105.912C65.245 110.276 65.2239 115.624 65.2072 119.859C65.2061 120.145 65.2049 120.426 65.2049 120.701C65.2049 122.369 63.8497 123.722 62.178 123.722C60.5062 123.722 59.151 122.369 59.151 120.701V120.592C59.1511 115.661 59.1512 112.353 57.0137 109.696C56.8286 109.466 56.3365 109.008 55.5875 108.439C54.8861 107.906 54.1488 107.418 53.6372 107.119C51.3963 105.808 50.4411 103.9 50.1296 101.994C49.989 101.133 49.9801 100.295 49.992 99.6013C49.9982 99.2359 50.0078 98.953 50.0165 98.6939C50.0277 98.363 50.0375 98.0709 50.0375 97.6953C50.0375 94.1971 51.9515 90.0191 55.7105 88.32C56.4892 87.968 57.3265 87.6551 58.1291 87.4446C58.8342 87.2597 59.8792 87.0514 60.9078 87.2234C61.2626 87.2827 61.7558 87.4107 62.2556 87.7031C62.3537 87.7058 62.4526 87.7132 62.552 87.7255C64.7659 88.0007 65.5876 89.8612 65.831 90.7113C66.1043 91.6655 66.107 92.677 66.0391 93.4734C65.9676 94.3115 65.7935 95.1837 65.5358 95.9561C65.4067 96.3431 65.2384 96.7601 65.0183 97.1588C64.8188 97.5202 64.4718 98.0612 63.9087 98.5092C62.9188 99.2967 61.3148 100.124 59.4925 99.512C57.7539 98.928 57.0224 97.4254 56.7431 96.5331C56.6557 96.2539 56.5896 95.9689 56.5425 95.6826ZM58.0781 90.0582C58.0781 90.0582 58.0759 90.0636 58.07 90.0746C58.0749 90.0637 58.0781 90.0582 58.0781 90.0582ZM120.413 95.6826C120.692 96.2895 120.864 96.9846 120.864 97.6953C120.864 98.1126 120.88 98.6394 120.894 99.0817C120.901 99.326 120.908 99.5445 120.911 99.7044C120.921 100.293 120.903 100.701 120.851 101.021C120.803 101.319 120.735 101.462 120.685 101.54C120.644 101.605 120.547 101.736 120.258 101.905C119.516 102.339 118.577 102.965 117.702 103.63C116.875 104.259 115.89 105.081 115.222 105.912C111.711 110.276 111.732 115.624 111.749 119.859C111.75 120.145 111.751 120.426 111.751 120.701C111.751 122.369 113.106 123.722 114.778 123.722C116.45 123.722 117.805 122.369 117.805 120.701V120.593C117.805 115.661 117.805 112.353 119.942 109.696C120.127 109.466 120.619 109.008 121.368 108.439C122.07 107.906 122.807 107.418 123.319 107.119C125.559 105.808 126.515 103.9 126.826 101.994C126.967 101.133 126.976 100.295 126.964 99.6013C126.958 99.2358 126.948 98.9529 126.939 98.6938C126.928 98.3629 126.918 98.0709 126.918 97.6953C126.918 94.1971 125.004 90.0191 121.245 88.32C120.467 87.968 119.629 87.6551 118.827 87.4446C118.122 87.2597 117.077 87.0514 116.048 87.2234C115.693 87.2827 115.2 87.4107 114.7 87.7031C114.602 87.7058 114.503 87.7132 114.404 87.7255C112.19 88.0007 111.368 89.8612 111.125 90.7113C110.851 91.6655 110.849 92.677 110.917 93.4734C110.988 94.3115 111.162 95.1837 111.42 95.9561C111.549 96.3431 111.717 96.7601 111.937 97.1588C112.137 97.5202 112.484 98.0612 113.047 98.5092C114.037 99.2967 115.641 100.124 117.463 99.512C119.202 98.928 119.933 97.4254 120.213 96.5331C120.3 96.2539 120.366 95.9689 120.413 95.6826ZM118.878 90.0582C118.878 90.0582 118.881 90.0639 118.886 90.0745C118.88 90.0633 118.878 90.0582 118.878 90.0582ZM22.7206 115.447C22.9272 113.791 24.4395 112.616 26.0985 112.822C27.119 112.949 27.8249 113.5 28.2332 113.961C28.6198 114.398 28.8408 114.858 28.9681 115.174C29.223 115.807 29.3512 116.499 29.4283 117.061C29.5892 118.235 29.6316 119.682 29.6311 121.022C29.6305 122.392 29.5839 123.78 29.5388 124.882C29.5228 125.272 29.5067 125.635 29.4928 125.946C29.4872 126.071 29.482 126.188 29.4773 126.295C29.4691 126.484 29.4626 126.64 29.4582 126.764C29.456 126.825 29.4545 126.874 29.4536 126.913C29.4533 126.923 29.4531 126.932 29.453 126.939C29.4528 126.946 29.4527 126.953 29.4526 126.958L29.4525 126.97L29.4525 126.975C29.4525 131.196 29.9799 134.99 31.372 138.797C33.2361 143.894 36.4464 147.026 40.4782 150.96C41.1083 151.575 41.7585 152.209 42.4267 152.874C44.3128 154.75 46.4866 158.196 47.5327 161.638C48.0596 163.371 48.3846 165.372 48.0378 167.306C47.6684 169.367 46.5316 171.295 44.3655 172.492C44.3227 172.515 44.2629 172.549 44.188 172.592C43.5818 172.936 41.9911 173.839 40.4886 174.344C39.7378 174.596 38.3848 174.98 37.0206 174.655C36.2204 174.464 35.3334 174.007 34.6921 173.113C34.0792 172.258 33.914 171.313 33.914 170.545C33.914 169.21 34.2631 167.832 35.1932 166.752C36.1622 165.627 37.5765 165.067 39.0212 165.224C40.2395 165.356 41.2159 165.909 41.9404 166.699C42.0011 166.574 42.0457 166.424 42.0785 166.242C42.1927 165.605 42.1186 164.639 41.7395 163.392C40.9737 160.873 39.3082 158.303 38.1541 157.155C37.5613 156.566 36.955 155.978 36.3427 155.385C32.327 151.492 28.0554 147.351 25.6851 140.869C23.9975 136.254 23.3985 131.731 23.3985 126.975C23.3985 126.716 23.4227 126.171 23.4509 125.536C23.4637 125.248 23.4773 124.942 23.4899 124.635C23.5338 123.562 23.5765 122.268 23.5771 121.019C23.5776 119.74 23.533 118.631 23.4302 117.881C23.4249 117.843 23.4197 117.807 23.4146 117.773C22.8871 117.151 22.6118 116.32 22.7206 115.447ZM154.235 115.447C154.344 116.32 154.069 117.151 153.541 117.773C153.536 117.807 153.531 117.843 153.526 117.881C153.423 118.631 153.378 119.74 153.379 121.019C153.379 122.268 153.422 123.562 153.466 124.635C153.478 124.942 153.492 125.248 153.505 125.536C153.533 126.171 153.557 126.715 153.557 126.975C153.557 131.731 152.958 136.254 151.271 140.869C148.9 147.351 144.629 151.492 140.613 155.385C140.001 155.978 139.394 156.566 138.802 157.155C137.648 158.303 135.982 160.873 135.216 163.392C134.837 164.639 134.763 165.605 134.877 166.242C134.91 166.424 134.955 166.574 135.015 166.699C135.74 165.909 136.716 165.356 137.935 165.224C139.379 165.067 140.794 165.627 141.763 166.752C142.693 167.832 143.042 169.21 143.042 170.545C143.042 171.313 142.877 172.258 142.264 173.113C141.622 174.007 140.735 174.464 139.935 174.655C138.571 174.98 137.218 174.596 136.467 174.344C134.965 173.839 133.374 172.936 132.768 172.592C132.693 172.549 132.633 172.515 132.59 172.492C130.424 171.295 129.287 169.367 128.918 167.306C128.571 165.372 128.896 163.371 129.423 161.638C130.469 158.196 132.643 154.75 134.529 152.874C135.197 152.209 135.847 151.575 136.478 150.96C140.509 147.026 143.72 143.894 145.584 138.797C146.976 134.99 147.503 131.196 147.503 126.975L147.503 126.97L147.503 126.958C147.503 126.947 147.503 126.932 147.502 126.913C147.501 126.874 147.5 126.825 147.498 126.764C147.493 126.64 147.487 126.484 147.478 126.295C147.462 125.924 147.439 125.43 147.417 124.882C147.372 123.78 147.325 122.392 147.325 121.022C147.324 119.682 147.367 118.235 147.528 117.061C147.605 116.499 147.733 115.807 147.988 115.174C148.115 114.858 148.336 114.398 148.723 113.961C149.131 113.5 149.837 112.949 150.857 112.822C152.516 112.616 154.029 113.791 154.235 115.447ZM32.5118 133.249C32.5118 131.58 33.867 130.227 35.5387 130.227C36.9804 130.227 38.3202 130.633 39.4196 131.508C40.4796 132.351 41.0795 133.441 41.4279 134.414C42.0714 136.211 42.0711 138.278 42.0709 139.468L42.0709 139.523C42.0709 141.192 40.7157 142.545 39.0439 142.545C37.3722 142.545 36.0169 141.192 36.0169 139.523C36.0169 138.888 36.0111 138.292 35.9626 137.726C35.9133 137.152 35.8289 136.732 35.727 136.448C35.6991 136.37 35.6742 136.314 35.6545 136.275C35.6249 136.272 35.5867 136.271 35.5387 136.271C33.867 136.271 32.5118 134.918 32.5118 133.249ZM35.7415 136.289C35.7415 136.289 35.7384 136.288 35.733 136.286C35.739 136.288 35.7415 136.289 35.7415 136.289ZM140.993 137.726C140.945 138.292 140.939 138.888 140.939 139.523C140.939 141.192 139.584 142.545 137.912 142.545C136.24 142.545 134.885 141.192 134.885 139.523V139.468C134.885 138.278 134.884 136.211 135.528 134.414C135.876 133.441 136.476 132.351 137.536 131.508C138.636 130.633 139.975 130.227 141.417 130.227C143.089 130.227 144.444 131.58 144.444 133.249C144.444 134.918 143.089 136.271 141.417 136.271C141.369 136.271 141.331 136.272 141.301 136.275C141.282 136.314 141.257 136.37 141.229 136.448C141.127 136.732 141.042 137.152 140.993 137.726ZM141.214 136.289C141.214 136.289 141.217 136.288 141.223 136.286C141.217 136.288 141.214 136.289 141.214 136.289ZM52.3636 133.713C54.0354 133.713 55.3906 135.066 55.3906 136.735V146.146C55.3906 146.926 55.629 147.669 56.0992 148.791C56.1475 148.906 56.2007 149.03 56.2575 149.162C56.6784 150.143 57.2903 151.568 57.4728 153.111C57.5129 153.45 57.8913 154.184 59.334 155.346C59.9809 155.867 60.7023 156.367 61.4655 156.883C61.5636 156.95 61.664 157.017 61.7659 157.086C62.4054 157.518 63.1043 157.989 63.6815 158.436C65.701 159.998 67.1102 162.551 67.709 165.031C68.2992 167.474 68.2822 170.676 66.2698 173.122C65.4415 174.128 63.9297 175.154 62.4565 175.683C61.6967 175.956 60.6314 176.214 59.4828 176.045C58.1754 175.852 56.9023 175.109 56.1557 173.706C55.6433 172.744 55.1869 171.29 55.8063 169.798C56.493 168.144 58.048 167.491 59.3106 167.483C60.3016 167.476 61.2119 167.806 61.9501 168.374C62.0289 167.892 62.0176 167.25 61.8237 166.447C61.4662 164.967 60.661 163.744 59.9736 163.213C59.5645 162.896 59.0537 162.551 58.3949 162.106C58.2896 162.035 58.1805 161.961 58.0674 161.885C57.2959 161.363 56.392 160.741 55.5325 160.049C53.9625 158.784 51.8041 156.723 51.4606 153.82C51.3868 153.196 51.1439 152.619 50.6796 151.517C50.6273 151.392 50.5722 151.261 50.5142 151.123C50.0052 149.908 49.3366 148.213 49.3366 146.146V136.735C49.3366 135.066 50.6918 133.713 52.3636 133.713ZM124.592 133.713C126.264 133.713 127.619 135.066 127.619 136.735V146.146C127.619 148.213 126.951 149.908 126.442 151.123C126.384 151.261 126.329 151.392 126.276 151.516C125.812 152.619 125.569 153.196 125.495 153.82C125.152 156.723 122.993 158.784 121.423 160.049C120.564 160.741 119.66 161.363 118.888 161.885C118.775 161.961 118.666 162.035 118.561 162.106C117.902 162.551 117.391 162.896 116.982 163.213C116.295 163.744 115.49 164.967 115.132 166.447C114.938 167.25 114.927 167.892 115.006 168.374C115.744 167.806 116.654 167.476 117.645 167.483C118.908 167.491 120.463 168.144 121.149 169.798C121.769 171.29 121.312 172.744 120.8 173.706C120.053 175.109 118.78 175.852 117.473 176.045C116.324 176.214 115.259 175.956 114.499 175.683C113.026 175.154 111.514 174.128 110.686 173.122C108.674 170.676 108.657 167.474 109.247 165.031C109.846 162.551 111.255 159.998 113.274 158.436C113.851 157.989 114.55 157.518 115.19 157.086C115.292 157.017 115.392 156.95 115.49 156.883C116.253 156.367 116.975 155.867 117.622 155.346C119.064 154.184 119.443 153.45 119.483 153.111C119.665 151.568 120.277 150.143 120.698 149.162C120.755 149.03 120.808 148.906 120.857 148.791C121.327 147.669 121.565 146.926 121.565 146.146V136.735C121.565 135.066 122.92 133.713 124.592 133.713ZM21.374 157.541C23.3797 155.796 26.014 155.324 28.5285 155.324C30.2003 155.324 31.5555 156.676 31.5555 158.345C31.5555 160.014 30.2003 161.367 28.5285 161.367C26.6146 161.367 25.7437 161.755 25.3514 162.097C25.0468 162.362 24.5451 163.023 24.5451 164.968C24.5451 165.315 24.5017 165.635 24.453 165.893C24.7777 165.95 25.1959 166.053 25.6131 166.259C25.9749 166.438 27.693 167.423 27.3995 169.541C27.2813 170.395 26.8487 170.974 26.567 171.275C26.2752 171.587 25.9742 171.788 25.7694 171.907C25.0363 172.334 24.1941 172.493 23.584 172.552C22.884 172.62 22.0621 172.598 21.2144 172.411C19.86 172.112 18.6373 171.261 18.0813 169.806C17.6356 168.639 17.8008 167.508 17.9197 166.905C18.0304 166.345 18.2115 165.762 18.3266 165.392C18.345 165.333 18.3616 165.279 18.376 165.232C18.4482 164.996 18.4795 164.871 18.4918 164.824C18.5172 161.926 19.3146 159.332 21.374 157.541ZM145.4 158.345C145.4 156.676 146.756 155.324 148.427 155.324C150.942 155.324 153.576 155.796 155.582 157.541C157.641 159.332 158.439 161.926 158.464 164.824C158.476 164.871 158.508 164.996 158.58 165.232C158.594 165.28 158.611 165.333 158.629 165.392C158.744 165.762 158.925 166.345 159.036 166.905C159.155 167.508 159.32 168.639 158.874 169.806C158.318 171.261 157.096 172.112 155.741 172.411C154.894 172.598 154.072 172.62 153.372 172.552C152.762 172.493 151.919 172.334 151.186 171.907C150.982 171.788 150.681 171.587 150.389 171.275C150.107 170.974 149.675 170.395 149.556 169.541C149.263 167.423 150.981 166.438 151.343 166.259C151.76 166.053 152.178 165.95 152.503 165.893C152.454 165.635 152.411 165.315 152.411 164.968C152.411 163.023 151.909 162.362 151.604 162.097C151.212 161.755 150.341 161.367 148.427 161.367C146.756 161.367 145.4 160.014 145.4 158.345ZM153.557 171.844C153.523 171.851 153.519 171.849 153.555 171.844L153.557 171.844Z" fill="white"/>
<path d="M159.699 88.1164C159.699 91.8467 156.67 94.8707 152.933 94.8707C149.196 94.8707 146.167 91.8467 146.167 88.1164C146.167 84.3861 149.196 81.3621 152.933 81.3621C156.67 81.3621 159.699 84.3861 159.699 88.1164Z" fill="white"/>
<path d="M30.0731 88.1164C30.0731 91.8467 27.0438 94.8707 23.3069 94.8707C19.57 94.8707 16.5407 91.8467 16.5407 88.1164C16.5407 84.3861 19.57 81.3621 23.3069 81.3621C27.0438 81.3621 30.0731 84.3861 30.0731 88.1164Z" fill="white"/>
<path d="M50.7281 121.531C50.7281 125.262 47.6987 128.286 43.9619 128.286C40.225 128.286 37.1956 125.262 37.1956 121.531C37.1956 117.801 40.225 114.777 43.9619 114.777C47.6987 114.777 50.7281 117.801 50.7281 121.531Z" fill="white"/>
<path d="M139.757 121.531C139.757 125.262 136.728 128.286 132.991 128.286C129.254 128.286 126.225 125.262 126.225 121.531C126.225 117.801 129.254 114.777 132.991 114.777C136.728 114.777 139.757 117.801 139.757 121.531Z" fill="white"/>
<path d="M124.088 168.456C124.088 172.186 121.058 175.21 117.322 175.21C113.585 175.21 110.555 172.186 110.555 168.456C110.555 164.726 113.585 161.702 117.322 161.702C121.058 161.702 124.088 164.726 124.088 168.456Z" fill="white"/>
<path d="M65.6848 168.456C65.6848 172.186 62.6554 175.21 58.9186 175.21C55.1817 175.21 52.1523 172.186 52.1523 168.456C52.1523 164.726 55.1817 161.702 58.9186 161.702C62.6554 161.702 65.6848 164.726 65.6848 168.456Z" fill="white"/>
<path d="M166.111 168.456C166.111 172.186 163.082 175.21 159.345 175.21C155.608 175.21 152.579 172.186 152.579 168.456C152.579 164.726 155.608 161.702 159.345 161.702C163.082 161.702 166.111 164.726 166.111 168.456Z" fill="white"/>
<path d="M99.8737 166.325C99.8737 170.055 96.8444 173.079 93.1075 173.079C89.3706 173.079 86.3413 170.055 86.3413 166.325C86.3413 162.594 89.3706 159.57 93.1075 159.57C96.8444 159.57 99.8737 162.594 99.8737 166.325Z" fill="white"/>
<path d="M115.541 49.7234C115.541 53.4537 112.512 56.4777 108.775 56.4777C105.038 56.4777 102.008 53.4537 102.008 49.7234C102.008 45.9931 105.038 42.9691 108.775 42.9691C112.512 42.9691 115.541 45.9931 115.541 49.7234Z" fill="white"/>
<path d="M76.3695 49.7234C76.3695 53.4537 73.3402 56.4777 69.6033 56.4777C65.8664 56.4777 62.8371 53.4537 62.8371 49.7234C62.8371 45.9931 65.8664 42.9691 69.6033 42.9691C73.3402 42.9691 76.3695 45.9931 76.3695 49.7234Z" fill="white"/>
<path d="M89.9008 166.325C89.9008 170.055 86.8715 173.079 83.1346 173.079C79.3977 173.079 76.3684 170.055 76.3684 166.325C76.3684 162.594 79.3977 159.57 83.1346 159.57C86.8715 159.57 89.9008 162.594 89.9008 166.325Z" fill="white"/>
<path d="M23.6638 168.456C23.6638 172.186 20.6344 175.21 16.8976 175.21C13.1607 175.21 10.1313 172.186 10.1313 168.456C10.1313 164.726 13.1607 161.702 16.8976 161.702C20.6344 161.702 23.6638 164.726 23.6638 168.456Z" fill="white"/>
</svg>
