<svg width="555" height="162" viewBox="0 0 555 162" fill="none" xmlns="http://www.w3.org/2000/svg">
<g clip-path="url(#clip0_584_16)">
<path d="M163.448 34.2275C161.674 34.1632 159.845 34.7155 158.121 34.4613C153.905 33.836 152.242 34.3941 150.448 38.2337C148.832 41.6934 147.599 45.3285 146.103 48.8467C142.251 57.9139 137.269 66.5399 135.347 76.361C135.034 77.9506 134.598 79.6513 132.199 80.0428C130.753 75.9519 129.406 71.9019 127.889 67.9133C124.094 57.9168 120.28 47.9262 116.324 37.9912C115.748 36.5447 114.345 35.4197 113.317 34.134H93.6279C93.8675 35.8639 93.7828 37.0707 94.2065 38.0671C104.302 61.8587 114.454 85.627 124.447 109.053H140.896C151.409 84.0929 163.133 60.1084 173.588 34.9405C169.52 34.6454 166.487 34.3415 163.445 34.2334L163.448 34.2275Z" fill="black"/>
<path d="M266.843 85.4165C260.409 67.2003 254.15 49.4837 247.867 31.6999C240.506 32.0301 234.75 35.2882 227.985 37.623C228.818 40.2558 229.423 42.3217 230.127 44.3554C232.851 52.2392 235.632 60.0996 238.338 67.9892C242.511 80.1597 246.611 92.3536 250.83 104.507C251.301 105.859 252.356 107.011 253.025 108.077C257.671 108.083 285.717 98.7003 294.761 94.1653C293.685 88.9289 291.856 83.8649 289.405 78.9295C281.661 80.6302 274.73 84.1337 266.843 85.4165Z" fill="black"/>
<path d="M507.117 37.5704C506.232 39.1833 505.282 40.3346 504.931 41.6467C503.163 48.2506 501.58 54.9012 499.861 61.5198C499.47 63.0334 498.804 64.474 498.208 66.0987C489.05 64.7136 480.751 62.449 472.484 59.7168C472.581 58.2616 472.508 57.2477 472.736 56.3038C474.416 49.3347 476.131 42.3772 477.89 35.4285C478.369 33.5379 478.6 31.7876 477.008 30.6275C471.047 29.3038 465.363 28.0414 459.247 26.6827C458.397 28.3307 457.661 29.2921 457.386 30.3674C455.995 35.8639 454.75 41.3954 453.403 46.9006C449.876 61.321 446.311 75.7328 442.784 90.1532C442.007 93.3266 439.903 96.3071 441.484 100.307C447.436 102.189 453.66 104.147 460.413 104.071C463.14 94.4253 465.194 85.2003 468.28 75.9694C477.49 77.1558 485.835 79.7506 494.707 82.1146C494.447 83.9175 494.397 85.3902 494.008 86.7724C492.033 93.8351 489.932 100.866 487.98 107.934C487.688 108.986 487.939 110.187 487.939 111.823C494.502 113.115 500.691 114.871 507.672 115.467C513.82 91.3045 519.854 67.6006 525.999 43.4467C520.103 40.3347 513.455 40.2207 507.12 37.5704H507.117Z" fill="black"/>
<path d="M425.296 37.5645C430.038 39.2214 434.138 41.448 437.621 44.9779C438.471 45.8399 439.585 46.4477 441.388 47.7684C442.609 40.1827 445.686 34.0025 445.934 27.2116C439.322 21.4492 431.637 19.135 423.63 17.9924C416.863 17.0281 410.238 18.5476 403.868 20.8853C399.295 22.5626 394.818 24.5759 391.405 28.1584C381.204 38.8678 376.675 51.3685 379.831 66.1162C380.351 68.5532 380.921 71.0633 382.002 73.2812C388.48 86.5591 399.453 94.1565 413.786 96.8039C418.581 97.6893 423.858 98.6098 428.416 94.9309C429.36 88.7857 432.288 83.0584 432.703 76.6825C431.683 76.5071 431.178 76.2821 430.731 76.3698C429.752 76.5626 428.779 76.8461 427.85 77.2084C416.746 81.5302 402.933 74.3506 400.031 62.7909C399.128 59.1938 399.762 55.6931 400.505 52.2305C403.082 40.2412 416.804 34.5957 425.296 37.5645Z" fill="black"/>
<path d="M359.166 17.5132C350.494 9.90993 340.342 6.85343 329.069 7.00538C326.439 7.04044 323.757 7.86739 321.22 8.69434C316.457 10.246 311.306 11.3096 307.15 13.9015C292.648 22.9541 285.033 35.7441 286.746 53.4022C288.04 66.7591 295.509 75.9958 306.239 82.7165C312.32 86.5269 319.441 88.5519 327.249 88.0406C333.969 88.4029 340.453 86.5182 346.888 83.7773C361.939 77.3662 372.024 62.5688 371.825 46.3016C371.685 34.9288 367.962 25.2216 359.169 17.5132H359.166ZM342.554 64.9474C336.652 68.1617 330.77 70.7944 324.151 68.8016C318.623 67.136 313.564 64.5529 310.391 59.3165C304.161 49.0366 307.387 36.4658 316.858 29.9671C325.852 23.7986 336.637 24.0294 344.839 32.3135C352.411 39.9577 354.836 52.7301 342.557 64.9474H342.554Z" fill="black"/>
<path d="M86.9308 63.9743C84.2717 56.9321 81.7558 49.8343 79.0061 42.8272C78.0623 40.4165 77.5918 37.5996 75.4791 36.4161H54.6593C49.9343 48.1892 45.3525 59.6759 40.7151 71.1392C36.3904 81.837 32.0307 92.5231 27.6329 103.195C26.6131 105.667 25.307 108.039 26.4349 111.102H44.7271C48.3534 107.268 47.7252 100.857 52.0674 97.6776C56.2022 97.8033 60.0418 97.9494 63.8843 98.0312C67.4259 98.1072 70.9674 98.1568 74.509 98.1305C76.6421 98.113 78.5269 98.5104 79.4649 99.8633C81.0574 103.969 82.4278 107.507 83.81 111.081C90.8756 111.482 97.5 111.286 104.68 111.011C102.733 105.783 101.077 101.263 99.373 96.7601C95.2353 85.8286 91.0538 74.9117 86.9279 63.9772L86.9308 63.9743ZM58.5106 83.3565C57.1314 80.0954 58.0986 77.7899 59.2645 75.8876C61.9031 71.5863 61.6255 65.9642 65.9181 61.359C68.133 68.5737 70.1054 74.9993 72.2502 81.9743C67.9518 84.8935 63.1567 82.8013 58.5106 83.3536V83.3565Z" fill="black"/>
<path d="M210.062 39.0519C203.005 37.8246 196.036 38.2249 188.246 38.1723C179.219 60.7366 170.301 83.0205 161.389 105.304C160.606 107.259 159.846 109.226 158.817 111.841H179.231C181.092 107.934 182.872 104.197 184.663 100.436H211.158C213.007 104.653 214.845 108.849 216.718 113.124C223.822 112.72 230.458 114.123 237.123 112.227C227.986 87.5205 219.068 63.4045 210.062 39.0519ZM190.665 85.0075C192.746 77.6613 195.308 71.2269 197.862 64.7866C198.417 64.924 198.97 65.0613 199.525 65.1987C201.261 71.3935 202.993 77.5912 204.875 84.3062L190.665 85.0045V85.0075Z" fill="black"/>
<path d="M43.46 151.88H44.78C45.55 151.88 46.1367 151.88 46.54 151.88C46.98 151.88 47.4567 151.88 47.97 151.88C48.4833 151.88 49.1983 151.88 50.115 151.88H55.78V162H25.475V158.04C25.475 157.637 25.475 157.197 25.475 156.72C25.475 156.243 25.475 155.473 25.475 154.41V133.51C25.475 132.447 25.475 131.677 25.475 131.2C25.475 130.687 25.475 130.247 25.475 129.88V125.92H39.225V129.88C39.225 130.247 39.225 130.687 39.225 131.2C39.225 131.677 39.225 132.447 39.225 133.51V149.79C39.225 150.34 39.3533 150.78 39.61 151.11C39.9033 151.403 40.3617 151.605 40.985 151.715C41.6083 151.825 42.4333 151.88 43.46 151.88ZM98.6151 143.96C98.6151 147.04 98.1018 149.717 97.0751 151.99C96.0851 154.263 94.7835 156.133 93.1701 157.6C91.5935 159.067 89.9068 160.167 88.1101 160.9C86.3135 161.633 84.6085 162 82.9951 162H72.1051C70.6751 162 69.0801 161.652 67.3201 160.955C65.5968 160.222 63.9285 159.122 62.3151 157.655C60.7385 156.152 59.4368 154.263 58.4101 151.99C57.3835 149.717 56.8701 147.04 56.8701 143.96C56.8701 140.88 57.3651 138.203 58.3551 135.93C59.3818 133.657 60.6835 131.787 62.2601 130.32C63.8368 128.817 65.5235 127.717 67.3201 127.02C69.1535 126.287 70.8585 125.92 72.4351 125.92H83.3251C84.7551 125.92 86.3318 126.287 88.0551 127.02C89.8151 127.753 91.4835 128.853 93.0601 130.32C94.6735 131.787 95.9935 133.657 97.0201 135.93C98.0835 138.203 98.6151 140.88 98.6151 143.96ZM71.1701 143.96C71.1701 146.05 71.4085 147.847 71.8851 149.35C72.3985 150.817 73.1501 151.953 74.1401 152.76C75.1301 153.567 76.3218 153.97 77.7151 153.97C79.1451 153.97 80.3368 153.567 81.2901 152.76C82.2801 151.953 83.0318 150.817 83.5451 149.35C84.0585 147.847 84.3151 146.05 84.3151 143.96C84.3151 141.87 84.0585 140.092 83.5451 138.625C83.0318 137.122 82.2801 135.967 81.2901 135.16C80.3001 134.353 79.1085 133.95 77.7151 133.95C76.3218 133.95 75.1301 134.353 74.1401 135.16C73.1868 135.967 72.4535 137.122 71.9401 138.625C71.4268 140.092 71.1701 141.87 71.1701 143.96ZM119.548 133.95C118.888 133.95 118.301 134.005 117.788 134.115C117.311 134.225 116.926 134.427 116.633 134.72C116.339 135.013 116.193 135.453 116.193 136.04V151.88C116.193 152.43 116.339 152.87 116.633 153.2C116.926 153.493 117.329 153.695 117.843 153.805C118.356 153.915 118.924 153.97 119.548 153.97C121.124 153.97 122.499 153.567 123.673 152.76C124.846 151.917 125.763 150.725 126.423 149.185C127.083 147.608 127.413 145.738 127.413 143.575C127.413 141.412 127.083 139.633 126.423 138.24C125.763 136.81 124.846 135.747 123.673 135.05C122.499 134.317 121.124 133.95 119.548 133.95ZM102.443 162V158.04C102.443 157.637 102.443 157.197 102.443 156.72C102.443 156.243 102.443 155.473 102.443 154.41V133.51C102.443 132.447 102.443 131.677 102.443 131.2C102.443 130.687 102.443 130.247 102.443 129.88V125.92H127.138C128.421 125.92 129.888 126.287 131.538 127.02C133.188 127.717 134.783 128.78 136.323 130.21C137.899 131.64 139.183 133.473 140.173 135.71C141.199 137.91 141.713 140.532 141.713 143.575C141.713 146.618 141.218 149.295 140.228 151.605C139.274 153.915 138.009 155.84 136.433 157.38C134.856 158.92 133.169 160.075 131.373 160.845C129.576 161.615 127.853 162 126.203 162H102.443ZM158.773 143.96C158.773 146.05 159.066 147.847 159.653 149.35C160.276 150.817 161.101 151.953 162.128 152.76C163.154 153.567 164.291 153.97 165.538 153.97C167.224 153.97 168.379 153.493 169.003 152.54C169.663 151.55 169.993 150.468 169.993 149.295C169.993 149.295 169.791 149.295 169.388 149.295C168.984 149.295 168.453 149.295 167.793 149.295C167.133 149.295 166.436 149.295 165.703 149.295V141.595H181.763V144.455C181.763 144.748 181.763 145.207 181.763 145.83C181.763 146.417 181.763 147.077 181.763 147.81C181.763 148.543 181.763 149.277 181.763 150.01V156.83C180.113 158.48 178.096 159.763 175.713 160.68C173.366 161.56 171.111 162 168.948 162H159.708C158.278 162 156.683 161.652 154.923 160.955C153.199 160.222 151.531 159.122 149.918 157.655C148.341 156.152 147.039 154.263 146.013 151.99C144.986 149.717 144.473 147.04 144.473 143.96C144.473 140.88 144.968 138.203 145.958 135.93C146.984 133.657 148.304 131.787 149.918 130.32C151.531 128.817 153.273 127.717 155.143 127.02C157.049 126.287 158.864 125.92 160.588 125.92H179.948V138.46H172.413C172.083 137.507 171.661 136.7 171.148 136.04C170.634 135.38 169.974 134.867 169.168 134.5C168.361 134.133 167.371 133.95 166.198 133.95C164.658 133.95 163.319 134.353 162.183 135.16C161.083 135.967 160.239 137.122 159.653 138.625C159.066 140.092 158.773 141.87 158.773 143.96ZM202.348 138.955C203.411 138.955 204.126 138.955 204.493 138.955C204.896 138.955 205.3 138.955 205.703 138.955H210.928V147.37H205.703C205.3 147.37 204.896 147.37 204.493 147.37C204.126 147.37 203.411 147.37 202.348 147.37H201.688C201.101 147.37 200.661 147.553 200.368 147.92C200.075 148.287 199.928 148.782 199.928 149.405V151.11C199.928 151.587 200.02 151.972 200.203 152.265C200.423 152.522 200.716 152.705 201.083 152.815C201.486 152.888 201.945 152.925 202.458 152.925H204.878C205.905 152.925 206.675 152.925 207.188 152.925C207.738 152.925 208.233 152.925 208.673 152.925C209.15 152.925 209.773 152.925 210.543 152.925H216.208V162H186.178V158.04C186.178 157.637 186.178 157.197 186.178 156.72C186.178 156.243 186.178 155.473 186.178 154.41V133.51C186.178 132.447 186.178 131.677 186.178 131.2C186.178 130.687 186.178 130.247 186.178 129.88V125.92H215.218V134.61H209.553C208.966 134.61 208.38 134.61 207.793 134.61C207.206 134.61 206.601 134.61 205.978 134.61C205.391 134.61 204.75 134.61 204.053 134.61H202.458C201.945 134.61 201.486 134.665 201.083 134.775C200.716 134.848 200.423 135.013 200.203 135.27C200.02 135.527 199.928 135.912 199.928 136.425V136.92C199.928 137.543 200.075 138.038 200.368 138.405C200.661 138.772 201.101 138.955 201.688 138.955H202.348Z" fill="black"/>
<path d="M277.5 1H1V143H14M382 1H554V143H229.5" stroke="black"/>
</g>
<defs>
<clipPath id="clip0_584_16">
<rect width="555" height="162" fill="white"/>
</clipPath>
</defs>
</svg>
