<svg width="503" height="165" viewBox="0 0 503 165" fill="none" xmlns="http://www.w3.org/2000/svg">
<g clip-path="url(#clip0_585_17)">
<path d="M140.448 27.2275C138.674 27.1632 136.845 27.7155 135.121 27.4612C130.905 26.8359 129.242 27.394 127.448 31.2337C125.832 34.6934 124.599 38.3285 123.103 41.8467C119.251 50.9139 114.269 59.5399 112.347 69.361C112.034 70.9506 111.598 72.6513 109.199 73.0428C107.753 68.9519 106.406 64.9019 104.889 60.9133C101.094 50.9168 97.2803 40.9262 93.3238 30.9911C92.7481 29.5447 91.3455 28.4197 90.3169 27.134H70.6279C70.8675 28.8638 70.7828 30.0707 71.2065 31.0671C81.3023 54.8587 91.4536 78.6269 101.447 102.053H117.896C128.409 77.0928 140.133 53.1084 150.588 27.9405C146.52 27.6453 143.487 27.3414 140.445 27.2333L140.448 27.2275Z" fill="black"/>
<path d="M243.843 78.4165C237.409 60.2003 231.15 42.4837 224.867 24.6999C217.506 25.0301 211.75 28.2882 204.985 30.623C205.818 33.2558 206.423 35.3217 207.127 37.3554C209.851 45.2392 212.632 53.0996 215.338 60.9892C219.511 73.1597 223.611 85.3536 227.83 97.5065C228.301 98.8594 229.356 100.011 230.025 101.077C234.671 101.083 262.717 91.7003 271.761 87.1653C270.685 81.9289 268.856 76.8649 266.405 71.9295C258.661 73.6302 251.73 77.1337 243.843 78.4165Z" fill="black"/>
<path d="M484.117 30.5704C483.232 32.1833 482.282 33.3346 481.931 34.6467C480.163 41.2506 478.58 47.9012 476.861 54.5198C476.47 56.0334 475.804 57.474 475.208 59.0987C466.05 57.7136 457.751 55.449 449.484 52.7168C449.581 51.2616 449.508 50.2477 449.736 49.3038C451.416 42.3347 453.131 35.3772 454.89 28.4285C455.369 26.5379 455.6 24.7876 454.008 23.6275C448.047 22.3038 442.363 21.0414 436.247 19.6827C435.397 21.3307 434.661 22.2921 434.386 23.3674C432.995 28.8639 431.75 34.3954 430.403 39.9006C426.876 54.321 423.311 68.7328 419.784 83.1532C419.007 86.3266 416.903 89.3071 418.484 93.3075C424.436 95.1893 430.66 97.1471 437.413 97.0711C440.14 87.4253 442.194 78.2003 445.28 68.9694C454.49 70.1558 462.835 72.7506 471.707 75.1146C471.447 76.9175 471.397 78.3902 471.008 79.7724C469.033 86.8351 466.932 93.8656 464.98 100.934C464.688 101.986 464.939 103.187 464.939 104.823C471.502 106.115 477.691 107.871 484.672 108.467C490.82 84.3045 496.854 60.6006 502.999 36.4467C497.103 33.3347 490.455 33.2207 484.12 30.5704H484.117Z" fill="black"/>
<path d="M402.296 30.5646C407.038 32.2214 411.138 34.448 414.621 37.9779C415.471 38.8399 416.585 39.4477 418.388 40.7685C419.609 33.1828 422.686 27.0025 422.934 20.2116C416.322 14.4493 408.637 12.135 400.63 10.9925C393.863 10.0282 387.238 11.5476 380.868 13.8853C376.295 15.5626 371.818 17.5759 368.405 21.1584C358.204 31.8678 353.675 44.3685 356.831 59.1162C357.351 61.5533 357.921 64.0633 359.002 66.2812C365.48 79.5591 376.453 87.1565 390.786 89.8039C395.581 90.6893 400.858 91.6098 405.416 87.9309C406.36 81.7858 409.288 76.0585 409.703 69.6825C408.683 69.5072 408.178 69.2822 407.731 69.3698C406.752 69.5627 405.779 69.8461 404.85 70.2085C393.746 74.5302 379.933 67.3507 377.031 55.7909C376.128 52.1938 376.762 48.6932 377.505 45.2305C380.082 33.2412 393.804 27.5957 402.296 30.5646Z" fill="black"/>
<path d="M336.166 10.5132C327.494 2.90993 317.342 -0.146569 306.069 0.00537943C303.439 0.0404444 300.757 0.867394 298.22 1.69434C293.457 3.24597 288.306 4.30961 284.15 6.9015C269.648 15.9541 262.033 28.7441 263.746 46.4022C265.04 59.7591 272.509 68.9958 283.239 75.7165C289.32 79.5269 296.441 81.5519 304.249 81.0406C310.969 81.4029 317.453 79.5182 323.888 76.7773C338.939 70.3662 349.024 55.5688 348.825 39.3016C348.685 27.9288 344.962 18.2216 336.169 10.5132H336.166ZM319.554 57.9474C313.652 61.1617 307.77 63.7944 301.151 61.8016C295.623 60.136 290.564 57.5529 287.391 52.3165C281.161 42.0366 284.387 29.4658 293.858 22.9671C302.852 16.7986 313.637 17.0294 321.839 25.3135C329.411 32.9577 331.836 45.7301 319.557 57.9474H319.554Z" fill="black"/>
<path d="M63.9308 56.9743C61.2717 49.9321 58.7558 42.8343 56.0061 35.8272C55.0623 33.4165 54.5918 30.5996 52.4791 29.4161H31.6593C26.9343 41.1892 22.3525 52.6759 17.7151 64.1392C13.3904 74.837 9.03068 85.5231 4.63294 96.1945C3.61314 98.6666 2.30697 101.039 3.43489 104.102H21.7271C25.3534 100.268 24.7252 93.8568 29.0674 90.6776C33.2022 90.8033 37.0418 90.9494 40.8843 91.0312C44.4259 91.1072 47.9674 91.1568 51.509 91.1305C53.6421 91.113 55.5269 91.5104 56.4649 92.8633C58.0574 96.9688 59.4278 100.507 60.81 104.081C67.8756 104.482 74.5 104.286 81.6795 104.011C79.7334 98.7835 78.0766 94.263 76.373 89.7601C72.2353 78.8286 68.0538 67.9117 63.9279 56.9772L63.9308 56.9743ZM35.5106 76.3565C34.1314 73.0954 35.0986 70.7899 36.2645 68.8876C38.9031 64.5863 38.6255 58.9642 42.9181 54.359C45.133 61.5737 47.1054 67.9993 49.2502 74.9743C44.9518 77.8935 40.1567 75.8013 35.5106 76.3536V76.3565Z" fill="black"/>
<path d="M187.062 32.0518C180.005 30.8246 173.036 31.2249 165.246 31.1723C156.219 53.7366 147.301 76.0204 138.389 98.3042C137.606 100.259 136.846 102.226 135.817 104.841H156.231C158.092 100.934 159.872 97.1968 161.663 93.436H188.158C190.007 97.6526 191.845 101.849 193.718 106.124C200.822 105.72 207.458 107.123 214.123 105.227C204.986 80.5204 196.068 56.4045 187.062 32.0518ZM167.665 78.0074C169.746 70.6613 172.308 64.2269 174.862 57.7866C175.417 57.924 175.97 58.0613 176.525 58.1986C178.261 64.3934 179.993 70.5912 181.875 77.3061L167.665 78.0045V78.0074Z" fill="black"/>
<path d="M20.46 144.88H21.78C22.55 144.88 23.1367 144.88 23.54 144.88C23.98 144.88 24.4567 144.88 24.97 144.88C25.4833 144.88 26.1983 144.88 27.115 144.88H32.78V155H2.475V151.04C2.475 150.637 2.475 150.197 2.475 149.72C2.475 149.243 2.475 148.473 2.475 147.41V126.51C2.475 125.447 2.475 124.677 2.475 124.2C2.475 123.687 2.475 123.247 2.475 122.88V118.92H16.225V122.88C16.225 123.247 16.225 123.687 16.225 124.2C16.225 124.677 16.225 125.447 16.225 126.51V142.79C16.225 143.34 16.3533 143.78 16.61 144.11C16.9033 144.403 17.3617 144.605 17.985 144.715C18.6083 144.825 19.4333 144.88 20.46 144.88ZM75.6151 136.96C75.6151 140.04 75.1018 142.717 74.0751 144.99C73.0851 147.263 71.7835 149.133 70.1701 150.6C68.5935 152.067 66.9068 153.167 65.1101 153.9C63.3135 154.633 61.6085 155 59.9951 155H49.1051C47.6751 155 46.0801 154.652 44.3201 153.955C42.5968 153.222 40.9285 152.122 39.3151 150.655C37.7385 149.152 36.4368 147.263 35.4101 144.99C34.3835 142.717 33.8701 140.04 33.8701 136.96C33.8701 133.88 34.3651 131.203 35.3551 128.93C36.3818 126.657 37.6835 124.787 39.2601 123.32C40.8368 121.817 42.5235 120.717 44.3201 120.02C46.1535 119.287 47.8585 118.92 49.4351 118.92H60.3251C61.7551 118.92 63.3318 119.287 65.0551 120.02C66.8151 120.753 68.4835 121.853 70.0601 123.32C71.6735 124.787 72.9935 126.657 74.0201 128.93C75.0835 131.203 75.6151 133.88 75.6151 136.96ZM48.1701 136.96C48.1701 139.05 48.4085 140.847 48.8851 142.35C49.3985 143.817 50.1501 144.953 51.1401 145.76C52.1301 146.567 53.3218 146.97 54.7151 146.97C56.1451 146.97 57.3368 146.567 58.2901 145.76C59.2801 144.953 60.0318 143.817 60.5451 142.35C61.0585 140.847 61.3151 139.05 61.3151 136.96C61.3151 134.87 61.0585 133.092 60.5451 131.625C60.0318 130.122 59.2801 128.967 58.2901 128.16C57.3001 127.353 56.1085 126.95 54.7151 126.95C53.3218 126.95 52.1301 127.353 51.1401 128.16C50.1868 128.967 49.4535 130.122 48.9401 131.625C48.4268 133.092 48.1701 134.87 48.1701 136.96ZM96.5478 126.95C95.8878 126.95 95.3011 127.005 94.7878 127.115C94.3111 127.225 93.9261 127.427 93.6328 127.72C93.3394 128.013 93.1928 128.453 93.1928 129.04V144.88C93.1928 145.43 93.3394 145.87 93.6328 146.2C93.9261 146.493 94.3294 146.695 94.8428 146.805C95.3561 146.915 95.9244 146.97 96.5478 146.97C98.1244 146.97 99.4994 146.567 100.673 145.76C101.846 144.917 102.763 143.725 103.423 142.185C104.083 140.608 104.413 138.738 104.413 136.575C104.413 134.412 104.083 132.633 103.423 131.24C102.763 129.81 101.846 128.747 100.673 128.05C99.4994 127.317 98.1244 126.95 96.5478 126.95ZM79.4428 155V151.04C79.4428 150.637 79.4428 150.197 79.4428 149.72C79.4428 149.243 79.4428 148.473 79.4428 147.41V126.51C79.4428 125.447 79.4428 124.677 79.4428 124.2C79.4428 123.687 79.4428 123.247 79.4428 122.88V118.92H104.138C105.421 118.92 106.888 119.287 108.538 120.02C110.188 120.717 111.783 121.78 113.323 123.21C114.899 124.64 116.183 126.473 117.173 128.71C118.199 130.91 118.713 133.532 118.713 136.575C118.713 139.618 118.218 142.295 117.228 144.605C116.274 146.915 115.009 148.84 113.433 150.38C111.856 151.92 110.169 153.075 108.373 153.845C106.576 154.615 104.853 155 103.203 155H79.4428ZM135.773 136.96C135.773 139.05 136.066 140.847 136.653 142.35C137.276 143.817 138.101 144.953 139.128 145.76C140.154 146.567 141.291 146.97 142.538 146.97C144.224 146.97 145.379 146.493 146.003 145.54C146.663 144.55 146.993 143.468 146.993 142.295C146.993 142.295 146.791 142.295 146.388 142.295C145.984 142.295 145.453 142.295 144.793 142.295C144.133 142.295 143.436 142.295 142.703 142.295V134.595H158.763V137.455C158.763 137.748 158.763 138.207 158.763 138.83C158.763 139.417 158.763 140.077 158.763 140.81C158.763 141.543 158.763 142.277 158.763 143.01V149.83C157.113 151.48 155.096 152.763 152.713 153.68C150.366 154.56 148.111 155 145.948 155H136.708C135.278 155 133.683 154.652 131.923 153.955C130.199 153.222 128.531 152.122 126.918 150.655C125.341 149.152 124.039 147.263 123.013 144.99C121.986 142.717 121.473 140.04 121.473 136.96C121.473 133.88 121.968 131.203 122.958 128.93C123.984 126.657 125.304 124.787 126.918 123.32C128.531 121.817 130.273 120.717 132.143 120.02C134.049 119.287 135.864 118.92 137.588 118.92H156.948V131.46H149.413C149.083 130.507 148.661 129.7 148.148 129.04C147.634 128.38 146.974 127.867 146.168 127.5C145.361 127.133 144.371 126.95 143.198 126.95C141.658 126.95 140.319 127.353 139.183 128.16C138.083 128.967 137.239 130.122 136.653 131.625C136.066 133.092 135.773 134.87 135.773 136.96ZM179.348 131.955C180.411 131.955 181.126 131.955 181.493 131.955C181.896 131.955 182.3 131.955 182.703 131.955H187.928V140.37H182.703C182.3 140.37 181.896 140.37 181.493 140.37C181.126 140.37 180.411 140.37 179.348 140.37H178.688C178.101 140.37 177.661 140.553 177.368 140.92C177.075 141.287 176.928 141.782 176.928 142.405V144.11C176.928 144.587 177.02 144.972 177.203 145.265C177.423 145.522 177.716 145.705 178.083 145.815C178.486 145.888 178.945 145.925 179.458 145.925H181.878C182.905 145.925 183.675 145.925 184.188 145.925C184.738 145.925 185.233 145.925 185.673 145.925C186.15 145.925 186.773 145.925 187.543 145.925H193.208V155H163.178V151.04C163.178 150.637 163.178 150.197 163.178 149.72C163.178 149.243 163.178 148.473 163.178 147.41V126.51C163.178 125.447 163.178 124.677 163.178 124.2C163.178 123.687 163.178 123.247 163.178 122.88V118.92H192.218V127.61H186.553C185.966 127.61 185.38 127.61 184.793 127.61C184.206 127.61 183.601 127.61 182.978 127.61C182.391 127.61 181.75 127.61 181.053 127.61H179.458C178.945 127.61 178.486 127.665 178.083 127.775C177.716 127.848 177.423 128.013 177.203 128.27C177.02 128.527 176.928 128.912 176.928 129.425V129.92C176.928 130.543 177.075 131.038 177.368 131.405C177.661 131.772 178.101 131.955 178.688 131.955H179.348Z" fill="black"/>
</g>
<defs>
<clipPath id="clip0_585_17">
<rect width="503" height="165" fill="white"/>
</clipPath>
</defs>
</svg>
