<svg width="122" height="124" viewBox="0 0 122 124" fill="none" xmlns="http://www.w3.org/2000/svg">
<path d="M61 1.5L69.0704 16.1686L81.6641 5.1486L84.2377 21.6965L99.8359 15.6543L96.6022 32.0857L113.323 31.75L104.673 46.0829L120.5 51.4943L107.475 62L120.5 72.5057L104.673 77.9171L113.323 92.25L96.6022 91.9143L99.8359 108.346L84.2377 102.303L81.6641 118.851L69.0704 107.831L61 122.5L52.9297 107.831L40.3359 118.851L37.7624 102.303L22.1641 108.346L25.3979 91.9143L8.67658 92.25L17.3275 77.9171L1.5 72.5057L14.5247 62L1.5 51.4943L17.3275 46.0829L8.67658 31.75L25.3979 32.0857L22.1641 15.6543L37.7624 21.6965L40.3359 5.1486L52.9297 16.1686L61 1.5Z" stroke="#222222" stroke-width="3" stroke-linejoin="round"/>
</svg>
