<svg width="1001" height="170" viewBox="0 0 1001 170" fill="none" xmlns="http://www.w3.org/2000/svg">
<path fill-rule="evenodd" clip-rule="evenodd" d="M177.663 152.5H143.663C143.163 151.667 142.463 149.7 143.663 148.5C144.318 147.844 146.597 146.711 148.997 145.518C152.089 143.981 155.381 142.344 155.663 141.5C156.063 140.3 160.829 110 163.163 95C159.329 93.3333 153.663 89 151.663 85.5C149.375 81.4976 149.663 73 151.663 69.5C152.697 67.6893 154.588 65.9543 155.615 65.0124C155.849 64.7975 156.039 64.6238 156.163 64.5C155.496 67.3333 154.163 73.5 154.163 75.5C154.163 78 154.663 84 164.163 88.5C166.829 73 172.263 41.3 172.663 38.5C173.163 35 178.163 38.5 174.163 33.5C170.963 29.5 165.829 26.1667 163.663 25V17L192.163 17.5L218.163 137C219.163 139.667 221.463 145 222.663 145C223.863 145 224.829 142.333 225.163 141L222.663 37.5C222.163 34.6667 220.863 28.7 219.663 27.5C218.463 26.3 214.496 24 212.663 23V17.5C221.996 20.4999 240.662 18.0997 248.662 20.4998C258.662 23.4998 271.401 55 270.663 70.5C269.663 91.5 265.663 99.5 242.163 103V138.5C242.163 144.5 248.829 146.333 252.163 146.5V152L189.663 152.5V147C193.329 145.5 200.463 140 199.663 130C198.686 117.79 193.892 113.69 190.408 110.71L190.163 110.5C187.363 108.1 176.996 102.167 172.163 99.5C170.829 110.833 167.863 135 166.663 141C165.463 147 173.496 147.5 177.663 147V152.5ZM173.163 91L180.163 42.5L193.663 103L173.163 91ZM238.663 27.5L240.663 94.5C245.996 94 256.163 92 256.163 69C256.163 46.4501 244.329 28.3333 238.663 27.5Z" fill="black"/>
<path fill-rule="evenodd" clip-rule="evenodd" d="M268.163 152.5H309.663V147C303.663 147 297.163 144.8 297.163 134V109C322.663 109 326.163 93 326.163 81.5C326.163 67.5 319.663 26.8 305.663 24C291.663 21.2 276.163 22.5 268.163 20.5V27C273.663 29.5 276.663 53 277.163 62C277.563 69.2 278.996 116 279.663 138.5C279.163 141.333 276.163 147 268.163 147V152.5ZM295.663 99.5L294.163 34C294.445 34.0565 294.73 34.1122 295.017 34.1684L295.019 34.1688C302.366 35.6049 311.163 58.3246 311.163 79.5C311.163 99.5 300.996 100.167 295.663 99.5Z" fill="black"/>
<path d="M322.663 26.5V21L356.663 22.1688V30C353.663 29.8333 347.763 31.5 348.163 39.5C348.563 47.5 350.329 123.5 351.163 145C367.02 143.714 368.55 139.122 369.924 135.003C370.152 134.316 370.377 133.643 370.663 133C371.321 131.519 372.163 130 372.163 130C372.583 130.094 373.248 130.147 373.933 130.202C374.794 130.27 375.686 130.341 376.163 130.5C376.163 130.5 375.063 133.1 374.663 135.5C374.263 137.9 372.496 147.5 371.163 152H324.163V146.5C331.163 146 334.163 142 334.163 137C334.163 133.937 333.6 109.11 333.164 89.8725L333.16 89.6963C332.886 77.61 332.663 36.7711 332.663 36C332.663 34 330.663 26.5 322.663 26.5Z" fill="black"/>
<path d="M374.663 152C374.663 148.609 375.352 147.288 376.264 145.542C376.697 144.712 377.18 143.788 377.663 142.5C379.163 138.5 377.663 45 376.163 38C375.855 36.564 375.694 35.4016 375.56 34.4307C375.041 30.6686 374.919 29.782 368.163 27V21.5C377.996 22.1667 401.263 23.3 415.663 22.5L423.163 42L419.163 43.5C416.435 37.6667 407.416 26.7 393.163 29.5L394.163 64.5C394.818 64.5 395.474 64.5076 396.126 64.5152C402.935 64.5946 409.381 64.6697 411.663 56H415.663V78.5H411.663C411.531 75.2569 407.947 69.3164 394.663 71.5L395.663 144.5C401.996 145.833 415.863 144.9 420.663 130.5L425.663 133L420.663 152H374.663Z" fill="black"/>
<path d="M449.663 21V42.5L454.163 42C454.563 32 463.329 29.5 467.663 29.5C467.811 33.6746 467.985 70.5371 468.172 75.7406L468.191 76.2875C469.052 100.302 470.163 131.256 470.163 135.5C470.163 140.7 465.663 144.5 461.163 145V151.5H497.163V145.5C490.663 145 486.163 139.5 486.163 134C486.163 129.6 485.163 52.5 484.663 29.5C493.863 27.1 497.829 33.8333 498.663 37.5L503.663 37L497.663 20.5C490.863 22.1 462.829 19.5 449.663 21Z" fill="black"/>
<path fill-rule="evenodd" clip-rule="evenodd" d="M500.663 145.5C501.829 145.5 505.413 145.062 506.663 143.5C508.663 141 508.829 139.167 508.663 136C508.329 112.333 507.663 34.3 507.663 31.5C507.663 30.2245 506.314 28.6585 504.845 26.9532C503.089 24.915 501.163 22.6779 501.163 20.5C507.163 18.5 520.563 20.3 526.163 19.5C533.163 18.5 553.663 18 556.163 45C558.163 66.6 547.996 98.3333 542.663 99.5C547.496 100.833 556.163 106.675 556.163 119.5C556.163 132.5 556.163 138.5 556.663 140C557.663 141.5 560.263 144.5 562.663 144.5C565.663 144.5 566.163 141.5 566.163 138C566.163 135.2 564.829 61.8333 564.163 33.5C563.829 30.5 560.963 24.9 552.163 26.5C551.496 24.1667 550.863 19.6 553.663 20C556.463 20.4 584.163 24.5 597.663 19.5L603.163 39L599.163 41.5C597.496 38 592.763 31.5 587.163 33.5C581.563 35.5 579.496 36 579.163 36L580.163 85.5C584.496 86.3333 593.363 85.1 594.163 73.5H599.163V104.5H594.163C594.829 100 593.163 91.5 581.163 93.5L582.663 143C587.996 143.667 599.463 142.6 602.663 133L608.163 135.5L603.663 151H552.163C546.663 151 542.163 146 541.163 141C540.363 137 540.163 122.667 540.163 116C539.829 110.833 536.263 100.8 524.663 102V137C525.163 139.5 528.663 144.5 534.663 144.5V151.5H500.663V145.5ZM522.663 28.5L523.663 94C529.663 93.1667 541.586 66.5 540.163 48C538.569 27.2805 530.328 27.9384 524.744 28.3842C523.995 28.444 523.294 28.5 522.663 28.5Z" fill="black"/>
<path d="M655.663 151.5L606.663 151C607.163 148.333 608.863 142.4 611.663 140L608.663 34C608.663 29.5 601.163 27.5 601.163 20.5H646.163L652.163 44.5L648.163 47.5C646.663 40.6667 639.663 24.5 623.663 34.5L625.163 73.5H633.663C636.663 73.6667 642.763 71.1 643.163 59.5H649.663L650.663 99.5H643.163C643.829 94 643.663 84 636.663 83C629.663 82 625.496 81.6667 625.163 82L627.163 142.5C633.663 143.833 647.863 143.1 652.663 129.5L659.663 131.5L655.663 151.5Z" fill="black"/>
<path d="M689 19.6094H719V27.3438C717 27.5781 713 29.7344 713 36.4844C713 43.2344 714.667 102.109 715.5 132.109C716 134.453 716.5 141.953 722.5 141.953V149.688H693V141.953C694.833 141.484 698.5 139.844 698.5 132.109C698.5 127.609 697.5 67.4219 697 36.4844C697 33.9062 695.4 28.6094 689 28.0469V19.6094Z" fill="black"/>
<path d="M727.5 149.688V141.953C729.333 141.953 732.5 139.169 732.5 133.516C732.5 125.078 731.333 66.0156 731 35.0781C731 32.4203 729.7 27.1525 724.5 27.3438V19.6094H744L777.5 99.7656L776.5 32.2656C776.5 28.75 775 23.8281 772 23.8281V19.6094H788.5V25.9375C785.7 25.9375 784 28.0469 784 32.2656L786.5 146.875L780.5 152.5L740.5 58.9844L741.5 127.891C741.5 135.625 745.6 141.953 748 141.953V149.688H727.5Z" fill="black"/>
<path d="M815.5 149.688H795V141.25C797.167 141.484 801.5 140.266 801.5 133.516C801.5 126.766 800.167 64.1406 799.5 33.6719C799.167 30.8594 797.4 25.2344 793 25.2344L792 17.5L811.5 19.6094L845 99.7656L844 36.4844C844 32.2656 843.7 25.9375 838.5 25.9375L838 18.2031H857V25.2344C853 25.2344 852.5 28.0469 852.5 35.7812C852.5 43.6763 853 113.125 853.5 146.875L847.5 151.797L808.5 57.5781L810 131.406C810 135.625 812.3 141.25 815.5 141.25V149.688Z" fill="black"/>
<path d="M48.5 78.5C44.5 84.5 41 90.5 13 93.5C41.5 95.5 46.5 103 48.5 108C50.5 103 61 98 74 94C61 92.5 51.6667 84.8333 48.5 78.5Z" stroke="black" stroke-width="5"/>
<circle cx="86.5" cy="94" r="13" fill="black"/>
<path d="M927 85.5C944.2 85.5 947.5 76.5 951.5 70.5C954.667 77.1667 966.6 86.3 989 85.5C966.6 85.5 955.833 93.6667 953 99.5C949.5 93.5 941.8 85.1 927 85.5Z" stroke="black" stroke-width="5"/>
<circle cx="915" cy="86" r="14" fill="black"/>
</svg>
